<svg xmlns="http://www.w3.org/2000/svg" width="278" height="278" viewBox="0 0 278 278" fill="none"><rect width="278" height="278" rx="64" fill="#0A1016"/><path fill-rule="evenodd" clip-rule="evenodd" d="M183.047 35.7664L169.786 73.5037L154.691 68.1991L167.952 30.4618L183.047 35.7664ZM108.023 103.626L87.4839 67.0199L94.4607 63.1053L102 60.4998L109.36 73.3103L121.977 95.7964L108.023 103.626ZM218.096 153.563L176.008 150.225L177.273 134.275L219.361 137.613L218.096 153.563ZM209.856 176.802L236.649 194.302L227.899 207.698L201.106 190.198L209.856 176.802Z" fill="white"/><path fill-rule="evenodd" clip-rule="evenodd" d="M115.158 90.5086C126.65 84.8705 139.775 83.5071 152.181 86.6625C164.587 89.8179 175.464 97.286 182.867 107.73C190.269 118.174 193.712 130.911 192.579 143.662L176.642 142.247C177.438 133.281 175.017 124.325 169.813 116.982C164.608 109.638 156.96 104.387 148.237 102.169C139.514 99.9501 130.286 100.909 122.205 104.873C121.163 105.384 120.149 105.941 119.165 106.541C112.519 110.594 107.256 116.613 104.134 123.805C100.55 132.061 100.022 141.324 102.644 149.934C105.266 158.544 110.867 165.94 118.445 170.798C126.022 175.655 135.082 177.657 144 176.444C152.919 175.232 161.115 170.884 167.121 164.181L179.038 174.857C170.496 184.391 158.84 190.574 146.155 192.298C133.471 194.023 120.587 191.176 109.81 184.268C99.0334 177.359 91.0673 166.841 87.3381 154.595C83.609 142.349 84.3603 129.176 89.4576 117.434C93.8978 107.205 101.383 98.6445 110.835 92.8806C112.234 92.0273 113.676 91.2354 115.158 90.5086Z" fill="white"/><path d="M186.084 84.5283C199.299 95.9512 207.911 111.789 210.315 129.09L222.567 111.421C220.691 105.735 218.242 100.267 215.267 95.0976C210.382 86.6108 204.075 78.9311 196.547 72.4236L186.084 84.5283Z" fill="white"/><path d="M225.989 125.698C225.244 120.825 224.095 116.051 222.567 111.421L210.315 129.09C210.39 129.631 210.459 130.17 210.521 130.709L210.532 130.805C210.642 131.764 210.733 132.724 210.804 133.687C211.08 137.418 211.066 141.176 210.756 144.928C210.529 147.672 210.144 150.413 209.598 153.137C209.408 154.087 209.199 155.033 208.97 155.974C208.119 159.485 207.002 162.933 205.629 166.288C204.449 169.169 203.079 171.98 201.524 174.704C201.056 175.523 200.572 176.333 200.071 177.136C199.77 177.617 199.463 178.095 199.151 178.571C199.043 178.734 198.937 178.894 198.833 179.05C194.483 185.549 189.068 191.347 182.757 196.177C179.316 198.811 175.639 201.132 171.769 203.11C170.517 203.75 169.244 204.355 167.953 204.922C166.692 205.475 165.414 205.994 164.118 206.476C162.159 207.205 160.162 207.851 158.132 208.411C157.257 208.652 156.377 208.877 155.493 209.085C152.139 209.874 148.748 210.418 145.346 210.719C141.721 211.04 138.083 211.085 134.464 210.856C134.376 210.851 134.287 210.845 134.198 210.839C133.035 210.761 131.877 210.656 130.724 210.522C128.12 210.221 125.544 209.779 123.006 209.201C117.676 207.986 112.515 206.172 107.618 203.801C100.74 200.47 94.4947 196.095 89.0751 190.879C88.7211 190.539 88.3704 190.194 88.0228 189.846C84.5765 186.39 81.4834 182.587 78.7967 178.491C76.6918 175.282 74.8361 171.894 73.2551 168.353C73.059 167.914 72.8672 167.472 72.6796 167.028C72.2545 166.023 71.8533 165.009 71.4758 163.99C70.0603 160.165 68.9794 156.247 68.2347 152.277C67.7001 149.428 67.3358 146.536 67.1482 143.616C66.0282 126.184 71.2836 108.939 81.9352 95.0951L69.2541 85.3385C63.1861 93.2254 58.5509 102.015 55.4698 111.31C49.2212 130.16 49.5449 150.525 56.3096 169.105C56.3562 169.233 56.4031 169.361 56.4504 169.488L56.4706 169.543C56.9319 170.79 57.4223 172.028 57.9417 173.257C58.171 173.799 58.4054 174.339 58.6451 174.876C60.5773 179.204 62.8454 183.345 65.4183 187.267C68.7023 192.273 72.4827 196.922 76.6945 201.145C77.1185 201.57 77.5472 201.991 77.9805 202.408C84.6044 208.782 92.2383 214.13 100.645 218.201C105.692 220.645 110.971 222.606 116.409 224.05C120.869 225.235 125.436 226.073 130.072 226.545C131.089 226.649 132.109 226.735 133.131 226.804C137.661 227.106 142.217 227.059 146.756 226.657C150.914 226.289 155.059 225.624 159.158 224.66C160.19 224.417 161.216 224.155 162.238 223.876L162.384 223.836C168.909 222.037 175.155 219.506 181.019 216.32C183.487 214.978 185.888 213.52 188.213 211.952C189.666 210.972 191.089 209.949 192.481 208.884C200.195 202.981 206.812 195.893 212.129 187.95L212.176 187.88C212.692 187.107 213.196 186.326 213.688 185.537C214.284 184.581 214.86 183.614 215.418 182.638C217.319 179.31 218.993 175.873 220.435 172.352C222.114 168.252 223.478 164.037 224.519 159.746C224.799 158.596 225.054 157.44 225.287 156.279C225.954 152.95 226.424 149.6 226.701 146.246C227.178 140.477 227.083 134.695 226.428 128.984C226.302 127.886 226.156 126.79 225.989 125.698Z" fill="white"/><path d="M167.394 55.7061C161.805 53.801 156.077 52.4756 150.297 51.7275L162.231 70.8504L167.394 55.7061Z" fill="white"/><path d="M126.763 68.0469C133.822 66.8295 141.061 66.6652 148.243 67.5951C148.391 67.6142 148.539 67.6338 148.686 67.6539C149.974 67.8287 151.259 68.0386 152.54 68.284C155.81 68.91 159.048 69.7652 162.231 70.8504L150.297 51.7275C141.519 50.591 132.67 50.7919 124.044 52.2797L114.901 54.3633L114.891 54.3663C107.789 56.3893 100.919 59.3127 94.4554 63.1062L102.554 76.9049C105.455 75.2025 108.455 73.7144 111.532 72.4445C114.069 71.3975 116.652 70.5015 119.267 69.7561L119.283 69.7516C121.746 69.0504 124.243 68.4815 126.763 68.0469Z" fill="white"/><path fill-rule="evenodd" clip-rule="evenodd" d="M256.405 164.196C256.273 164.813 256.137 165.429 255.996 166.044C255.39 168.691 254.693 171.32 253.906 173.927C252.564 178.372 250.96 182.751 249.096 187.042C248.357 188.744 247.577 190.432 246.756 192.105C244.445 196.815 241.84 201.343 238.964 205.669C234.315 212.664 228.96 219.127 223 224.965C222.982 224.983 222.963 225.001 222.944 225.02C218.017 229.84 212.678 234.232 206.984 238.145C204.82 239.632 202.604 241.049 200.341 242.395C196.626 244.603 192.781 246.617 188.821 248.423C187 249.253 185.154 250.04 183.285 250.781C170.736 255.761 157.332 258.629 143.611 259.153L143 243.165C154.891 242.71 166.508 240.225 177.384 235.909C190.124 230.854 201.847 223.288 211.804 213.535C216.969 208.475 221.61 202.874 225.64 196.812C228.131 193.063 230.389 189.138 232.392 185.056C233.104 183.606 233.78 182.143 234.421 180.668C236.036 176.949 237.426 173.154 238.589 169.302C239.271 167.043 239.875 164.765 240.401 162.471C241.378 158.205 242.084 153.886 242.517 149.541C242.655 148.149 242.766 146.754 242.848 145.358C243.536 133.677 242.255 121.866 238.958 110.432L254.332 106C258.236 119.54 259.691 133.537 258.753 147.361C258.675 148.51 258.581 149.657 258.47 150.804C258.034 155.299 257.345 159.77 256.405 164.196Z" fill="white"/><path fill-rule="evenodd" clip-rule="evenodd" d="M120.58 20.4219C130.948 18.8113 141.546 18.5571 152.105 19.7175C153.949 19.9201 155.793 20.166 157.633 20.4553C157.994 20.512 158.354 20.5703 158.714 20.6302C159.078 20.6908 159.441 20.753 159.804 20.8169C160.474 20.9349 161.143 21.0586 161.811 21.1878C167.365 22.2631 172.809 23.7244 178.107 25.5506C199.335 32.8683 218.216 46.0452 232.458 63.7297C232.687 64.0137 232.915 64.2989 233.141 64.5855L220.589 74.5073C220.393 74.2592 220.195 74.012 219.997 73.7656C207.654 58.4395 191.291 47.0192 172.893 40.6771C168.302 39.0945 163.584 37.8281 158.77 36.8961C158.191 36.7841 157.611 36.677 157.03 36.5747C156.716 36.5193 156.401 36.4654 156.086 36.4129C155.773 36.3608 155.461 36.3103 155.149 36.2612C153.553 36.0105 151.956 35.7974 150.357 35.6217C141.206 34.6161 132.022 34.8364 123.037 36.2323C114.756 37.5187 106.645 39.8034 98.8861 43.0471C96.2132 44.1645 93.582 45.3957 91 46.7391C88.1772 48.2078 85.4131 49.8107 82.7174 51.5456C82.6423 51.5939 82.5673 51.6423 82.4924 51.6908C82.3017 51.8142 82.1115 51.9382 81.9218 52.0627C79.2218 53.8354 76.6165 55.7257 74.1118 57.7253C67.8011 62.7634 62.1281 68.4963 57.1873 74.7919C49.3816 84.7381 43.4043 96.088 39.6281 108.321C39.2467 109.556 38.8877 110.801 38.5516 112.054C38.4697 112.359 38.3891 112.665 38.3099 112.972C37.5016 116.099 36.8424 119.249 36.3311 122.413C34.9512 130.953 34.6491 139.592 35.4019 148.132C36.3224 158.574 38.8205 168.867 42.8537 178.647C43.9559 181.32 45.1727 183.954 46.5035 186.543C46.648 186.824 46.794 187.105 46.9411 187.385C58.2107 208.827 76.5846 225.616 98.8359 234.931C98.9286 234.97 99.0214 235.009 99.1143 235.047C100.216 235.505 101.327 235.944 102.447 236.365C102.743 236.476 103.04 236.586 103.337 236.694L97.8506 251.724C97.5076 251.599 97.1654 251.472 96.8239 251.344C96.7297 251.308 96.6355 251.273 96.5415 251.237C95.2359 250.743 93.941 250.228 92.6573 249.69C66.9822 238.942 45.7816 219.57 32.7782 194.829C32.6084 194.506 32.44 194.182 32.2733 193.858C30.738 190.871 29.3339 187.831 28.0621 184.747C23.4081 173.461 20.5258 161.585 19.4637 149.537C18.5951 139.684 18.9436 129.716 20.536 119.861C21.1259 116.21 21.8865 112.575 22.8191 108.967C22.9105 108.614 23.0034 108.261 23.0979 107.909C23.4857 106.463 23.8999 105.027 24.34 103.601C28.6974 89.4858 35.5945 76.3896 44.6006 64.9139C50.3012 57.65 56.8472 51.0349 64.1293 45.2213C67.0195 42.9139 70.0256 40.7329 73.1406 38.6878C77.0344 36.1313 81.0553 33.8155 85.1808 31.7453C87.6561 30.5031 90.169 29.3494 92.7148 28.2852C101.668 24.5423 111.027 21.9061 120.58 20.4219Z" fill="white"/></svg>