<svg width="278" height="278" viewBox="0 0 278 278" fill="none" xmlns="http://www.w3.org/2000/svg">
<rect width="278" height="278" rx="64" fill="#0A1016"/>
<path fill-rule="evenodd" clip-rule="evenodd" d="M138.5 33.75C80.088 33.75 32.7356 81.1516 32.7356 139.625C32.7356 186.353 62.9812 226.028 104.963 240.068C108.561 241.271 110.503 245.166 109.301 248.767C108.099 252.368 104.209 254.313 100.611 253.109C53.1933 237.252 19 192.444 19 139.625C19 73.5577 72.502 20 138.5 20C204.498 20 258 73.5577 258 139.625C258 198.736 215.178 247.821 158.894 257.513L150.862 258.896V191.814C146.894 192.753 142.755 193.249 138.5 193.249C108.915 193.249 84.931 169.241 84.931 139.625C84.931 110.008 108.915 85.9998 138.5 85.9998C168.085 85.9998 192.069 110.008 192.069 139.625C192.069 159.756 180.987 177.296 164.598 186.466V242.253C210.388 230.623 244.264 189.078 244.264 139.625C244.264 81.1516 196.912 33.75 138.5 33.75ZM138.5 66.7498C98.2943 66.7498 65.7011 99.377 65.7011 139.625C65.7011 177.54 94.6313 208.699 131.595 212.176L137.82 212.762V252.125C137.82 255.922 134.745 259 130.952 259C127.159 259 124.085 255.922 124.085 252.125V225.052C83.1516 218.178 51.9655 182.551 51.9655 139.625C51.9655 91.7831 90.7083 52.9999 138.5 52.9999C186.292 52.9999 225.034 91.7831 225.034 139.625C225.034 168.503 210.911 194.08 189.231 209.809C186.16 212.037 181.866 211.351 179.64 208.276C177.414 205.202 178.1 200.903 181.171 198.675C199.439 185.422 211.299 163.91 211.299 139.625C211.299 99.377 178.706 66.7498 138.5 66.7498ZM138.5 99.7497C116.501 99.7497 98.6667 117.602 98.6667 139.625C98.6667 161.647 116.501 179.499 138.5 179.499C160.499 179.499 178.333 161.647 178.333 139.625C178.333 117.602 160.499 99.7497 138.5 99.7497Z" fill="white"/>
</svg>
