<svg xmlns="http://www.w3.org/2000/svg" width="362" height="36" viewBox="0 0 362 36" fill="none"><g clip-path="url(#clip0_866_73)"><path d="M37.6255 7.83021C37.6255 6.6552 38.6155 5.7002 39.7805 5.7002C40.9455 5.7002 41.9355 6.6602 41.9355 7.83021C41.9355 9.00021 40.9805 9.98521 39.7805 9.98521C38.5805 9.98521 37.6255 9.03021 37.6255 7.83021ZM31.2305 6.00018H34.9805V27.0002H31.2305V6.00018ZM41.6755 12.0002H37.8955V27.0002H41.6755V12.0002ZM68.8505 18.9902C71.6955 17.2402 73.6305 14.6352 74.3955 11.9952H70.6155C69.6305 14.5152 67.3705 16.4102 64.8855 17.2152V5.99521H61.1055V26.9952H64.8855V20.7502C67.7705 21.4702 70.0505 23.9652 70.8305 26.9952H74.6355C74.0555 23.8152 71.8805 20.8402 68.8505 18.9902ZM48.3755 13.6802C49.3655 12.3652 51.2955 11.6002 52.8605 11.6002C55.7805 11.6002 58.1955 13.7352 58.2005 16.9602V26.9952H54.4205V17.7952C54.4205 16.4702 53.8305 14.9402 51.9155 14.9402C49.6655 14.9402 48.3705 16.9352 48.3705 19.2702V27.0052H44.5905V12.0102H48.3755V13.6802Z" fill="white"/><path d="M12.5 29C19.4035 29 25 23.4035 25 16.5C25 9.59643 19.4035 4 12.5 4C5.59645 4 0 9.59643 0 16.5C0 23.4035 5.59645 29 12.5 29Z" fill="#00D66F"/><path d="M11.9253 9H8.07031C8.82031 12.135 11.0103 14.8149 13.7503 16.4999C11.0053 18.1849 8.82031 20.8649 8.07031 23.9999H11.9253C12.8803 21.0999 15.5253 18.5799 18.7753 18.0649V14.9301C15.5203 14.4201 12.8753 11.9 11.9253 9Z" fill="#011E0F"/></g><g clip-path="url(#clip1_866_73)"><path d="M140.438 18.6143V27.4017H137.625V5.66943H144.937C146.719 5.66943 148.406 6.33085 149.719 7.5592C151.031 8.69306 151.688 10.3938 151.688 12.1891C151.688 13.9844 151.031 15.5907 149.719 16.819C148.406 18.0474 146.812 18.7088 144.937 18.7088L140.438 18.6143ZM140.438 8.3151V15.8742H145.125C146.156 15.8742 147.188 15.4962 147.844 14.7403C149.344 13.323 149.344 10.9608 147.938 9.54345L147.844 9.44896C147.094 8.69306 146.156 8.22061 145.125 8.3151H140.438Z" fill="white"/><path d="M158.156 12.0947C160.219 12.0947 161.813 12.6617 163.031 13.7955C164.25 14.9294 164.812 16.4412 164.812 18.3309V27.4018H162.188V25.3231H162.094C160.969 27.0239 159.375 27.8743 157.5 27.8743C155.906 27.8743 154.5 27.4018 153.375 26.4569C152.344 25.512 151.688 24.1892 151.688 22.7719C151.688 21.2601 152.25 20.0317 153.375 19.0869C154.5 18.142 156.094 17.764 157.969 17.764C159.656 17.764 160.969 18.0475 162 18.7089V18.0475C162 17.1026 161.625 16.1577 160.875 15.5908C160.125 14.9294 159.188 14.5514 158.156 14.5514C156.563 14.5514 155.344 15.2128 154.5 16.5357L152.063 15.0239C153.563 13.0396 155.531 12.0947 158.156 12.0947ZM154.594 22.8664C154.594 23.6223 154.969 24.2837 155.531 24.6617C156.188 25.1341 156.938 25.4176 157.688 25.4176C158.813 25.4176 159.938 24.9451 160.781 24.0947C161.719 23.2443 162.188 22.205 162.188 21.0711C161.344 20.4097 160.125 20.0317 158.531 20.0317C157.406 20.0317 156.469 20.3152 155.719 20.8821C154.969 21.3546 154.594 22.016 154.594 22.8664Z" fill="white"/><path d="M180 12.5669L170.719 34.0157H167.906L171.375 26.5511L165.281 12.6614H168.281L172.687 23.3385H172.781L177.094 12.6614H180V12.5669Z" fill="white"/><path d="M129.281 16.7245C129.281 15.8741 129.188 15.0237 129.094 14.1733H117.375V18.9922H124.031C123.75 20.504 122.906 21.9214 121.594 22.7718V25.8899H125.625C127.969 23.7166 129.281 20.504 129.281 16.7245Z" fill="#4285F4"/><path d="M117.375 28.9135C120.75 28.9135 123.563 27.7796 125.625 25.8898L121.594 22.7717C120.469 23.5276 119.063 24.0001 117.375 24.0001C114.188 24.0001 111.375 21.8268 110.438 18.8032H106.312V22.0158C108.469 26.2678 112.688 28.9135 117.375 28.9135Z" fill="#34A853"/><path d="M110.437 18.803C109.875 17.2912 109.875 15.5904 110.437 13.9841V10.7715H106.312C104.531 14.2675 104.531 18.425 106.312 22.0156L110.437 18.803Z" fill="#FBBC04"/><path d="M117.375 8.88185C119.156 8.88185 120.844 9.54327 122.156 10.7716L125.719 7.18106C123.469 5.10232 120.469 3.87397 117.469 3.96846C112.781 3.96846 108.469 6.61413 106.406 10.8661L110.531 14.0787C111.375 11.0551 114.187 8.88185 117.375 8.88185Z" fill="#EA4335"/></g><g clip-path="url(#clip2_866_73)"><path d="M209.83 3.84326V28.8384H224.161C233.615 28.8384 237.715 23.455 237.715 16.3164C237.715 9.20544 233.615 3.84326 224.161 3.84326H209.83Z" fill="white"/><path d="M211.379 5.41992H224.163C232.84 5.41992 236.166 10.2381 236.166 16.3161C236.166 23.6042 231.522 27.2612 224.163 27.2612H211.379V5.41992ZM212.618 6.68014V26.0018H224.163C231.133 26.0018 234.926 22.6993 234.926 16.3161C234.926 9.75613 230.815 6.67975 224.163 6.67975H212.618V6.68014Z" fill="black"/><path d="M214.167 17.7368H217.863V24.4251H214.167V17.7368Z" fill="black"/><path d="M216.015 16.7023C217.283 16.7023 218.312 15.6566 218.312 14.3668C218.312 13.0769 217.283 12.0312 216.015 12.0312C214.746 12.0312 213.718 13.0769 213.718 14.3668C213.718 15.6566 214.746 16.7023 216.015 16.7023Z" fill="black"/><path d="M225.613 15.4594V16.5424H222.979V12.1966H225.528V13.2792H224.044V13.7824H225.448V14.8654H224.044V15.4598L225.613 15.4594ZM226.073 16.5432L227.362 12.1951H228.877L230.165 16.5432H229.057L228.815 15.7022H227.422L227.18 16.5432H226.073ZM227.734 14.6203H228.505L228.152 13.3921H228.087L227.734 14.6203ZM230.7 12.1954H231.766V15.4598H233.343C232.91 9.5367 228.329 8.25684 224.163 8.25684H219.723V12.1978H220.38C221.578 12.1978 222.322 13.0238 222.322 14.353C222.322 15.7245 221.596 16.5432 220.38 16.5432H219.723V24.4281H224.163C230.933 24.4281 233.29 21.2312 233.374 16.5424H230.7V12.1954ZM219.723 13.2804V15.4598H220.38C220.836 15.4598 221.258 15.3258 221.258 14.3526C221.258 13.4021 220.789 13.2804 220.38 13.2804H219.723Z" fill="#D50072"/></g><g clip-path="url(#clip3_866_73)"><path d="M299.696 20.0829V19.6973H299.6L299.488 19.9543L299.376 19.6973H299.28V20.0829H299.344V19.7937L299.456 20.0507H299.536L299.648 19.7937V20.0829H299.696ZM299.056 20.0829V19.7615H299.184V19.6973H298.864V19.7615H298.992V20.0829H299.056Z" fill="#00A2E5"/><path d="M288.32 21.7376H279.664V6.12061H288.32V21.7376Z" fill="#7375CF"/><path d="M280.224 13.9293C280.224 10.7641 281.696 7.93638 284 6.12082C282.32 4.78727 280.192 4 277.888 4C272.432 4 268 8.45051 268 13.9293C268 19.4081 272.432 23.8586 277.888 23.8586C280.192 23.8586 282.32 23.0713 284 21.7378C281.696 19.9222 280.224 17.0945 280.224 13.9293Z" fill="#EB001B"/><path d="M300 13.9293C300 19.4081 295.568 23.8586 290.112 23.8586C287.808 23.8586 285.68 23.0713 284 21.7378C286.304 19.9222 287.776 17.0945 287.776 13.9293C287.776 10.7641 286.304 7.93638 284 6.12082C285.68 4.78727 287.808 4 290.112 4C295.568 4 300 8.45051 300 13.9293Z" fill="#00A2E5"/><path d="M291.232 26.156C291.344 26.156 291.52 26.1721 291.632 26.2203L291.456 26.7666C291.328 26.7184 291.216 26.7023 291.104 26.7023C290.736 26.7023 290.544 26.9433 290.544 27.3771V28.8552H289.968V26.2203H290.528V26.5416C290.688 26.3006 290.912 26.156 291.232 26.156ZM289.12 26.7344H288.192V27.9234C288.192 28.1804 288.288 28.3572 288.576 28.3572C288.72 28.3572 288.912 28.309 289.088 28.2126L289.248 28.7106C289.072 28.8392 288.784 28.9195 288.528 28.9195C287.856 28.9195 287.616 28.55 287.616 27.9394V26.7344H287.088V26.2042H287.616V25.4009H288.192V26.2042H289.12V26.7344ZM281.808 27.2968C281.872 26.9112 282.096 26.6541 282.512 26.6541C282.88 26.6541 283.12 26.879 283.184 27.2968H281.808ZM283.776 27.5378C283.776 26.7184 283.264 26.156 282.528 26.156C281.76 26.156 281.216 26.7184 281.216 27.5378C281.216 28.3732 281.776 28.9195 282.56 28.9195C282.96 28.9195 283.312 28.8231 283.632 28.55L283.344 28.1322C283.12 28.309 282.848 28.4054 282.576 28.4054C282.208 28.4054 281.872 28.2286 281.792 27.7627H283.744C283.76 27.6824 283.776 27.6181 283.776 27.5378ZM286.288 26.8951C286.128 26.7987 285.808 26.6702 285.472 26.6702C285.152 26.6702 284.976 26.7826 284.976 26.9754C284.976 27.1522 285.168 27.2004 285.424 27.2325L285.696 27.2646C286.272 27.345 286.608 27.586 286.608 28.0519C286.608 28.55 286.176 28.9195 285.408 28.9195C284.976 28.9195 284.576 28.807 284.272 28.5821L284.544 28.1322C284.736 28.2768 285.024 28.4054 285.424 28.4054C285.808 28.4054 286.016 28.2929 286.016 28.084C286.016 27.9394 285.872 27.8591 285.552 27.8109L285.28 27.7788C284.688 27.6984 284.368 27.4253 284.368 27.0076C284.368 26.4774 284.8 26.156 285.456 26.156C285.872 26.156 286.256 26.2524 286.528 26.4292L286.288 26.8951ZM293.328 26.6862C293.216 26.6862 293.104 26.7023 293.008 26.7505C292.912 26.7987 292.816 26.8469 292.752 26.9272C292.688 27.0076 292.624 27.0879 292.576 27.2004C292.528 27.2968 292.512 27.4253 292.512 27.5378C292.512 27.6663 292.528 27.7788 292.576 27.8752C292.624 27.9716 292.672 28.068 292.752 28.1483C292.832 28.2286 292.912 28.2768 293.008 28.325C293.104 28.3732 293.216 28.3893 293.328 28.3893C293.44 28.3893 293.552 28.3732 293.648 28.325C293.744 28.2768 293.84 28.2286 293.904 28.1483C293.984 28.068 294.032 27.9876 294.08 27.8752C294.128 27.7788 294.144 27.6502 294.144 27.5378C294.144 27.4092 294.128 27.2968 294.08 27.2004C294.032 27.104 293.984 27.0076 293.904 26.9272C293.824 26.8469 293.744 26.7987 293.648 26.7505C293.552 26.7184 293.44 26.6862 293.328 26.6862ZM293.328 26.156C293.536 26.156 293.728 26.1882 293.888 26.2685C294.064 26.3328 294.208 26.4292 294.336 26.5577C294.464 26.6862 294.56 26.8308 294.64 26.9915C294.704 27.1682 294.752 27.345 294.752 27.5378C294.752 27.7306 294.72 27.9234 294.64 28.084C294.576 28.2608 294.464 28.4054 294.336 28.5178C294.208 28.6464 294.064 28.7428 293.888 28.807C293.712 28.8713 293.52 28.9195 293.328 28.9195C293.12 28.9195 292.928 28.8874 292.768 28.807C292.592 28.7428 292.448 28.6464 292.32 28.5178C292.192 28.3893 292.096 28.2447 292.016 28.084C291.952 27.9073 291.904 27.7306 291.904 27.5378C291.904 27.345 291.936 27.1522 292.016 26.9915C292.08 26.8148 292.192 26.6702 292.32 26.5577C292.448 26.4292 292.592 26.3328 292.768 26.2685C292.928 26.1882 293.12 26.156 293.328 26.156ZM278.48 27.5378C278.48 27.0718 278.784 26.6862 279.28 26.6862C279.76 26.6862 280.064 27.0558 280.064 27.5378C280.064 28.0198 279.744 28.3732 279.28 28.3732C278.784 28.3732 278.48 28.0037 278.48 27.5378ZM280.608 27.5378V26.2203H280.032V26.5416C279.856 26.3006 279.584 26.156 279.2 26.156C278.464 26.156 277.888 26.7344 277.888 27.5378C277.888 28.3411 278.464 28.9195 279.2 28.9195C279.568 28.9195 279.84 28.7749 280.032 28.5339V28.8552H280.608V27.5378ZM277.392 28.8552V27.2004C277.392 26.5738 276.992 26.156 276.352 26.156C276.016 26.156 275.664 26.2524 275.424 26.622C275.248 26.3328 274.96 26.156 274.56 26.156C274.288 26.156 274 26.2364 273.792 26.5416V26.2203H273.216V28.8552H273.792V27.3932C273.792 26.9433 274.048 26.6862 274.432 26.6862C274.816 26.6862 275.008 26.9272 275.008 27.3771V28.8392H275.584V27.3771C275.584 26.9272 275.856 26.6702 276.224 26.6702C276.608 26.6702 276.8 26.9112 276.8 27.361V28.8231H277.392V28.8552Z" fill="white"/><path d="M295.36 28.6465V28.7107H295.424C295.44 28.7107 295.456 28.7107 295.456 28.6947C295.472 28.6947 295.472 28.6786 295.472 28.6625C295.472 28.6465 295.472 28.6465 295.456 28.6465C295.456 28.6465 295.44 28.6304 295.424 28.6304H295.36V28.6465ZM295.424 28.6143C295.456 28.6143 295.472 28.6143 295.488 28.6304C295.504 28.6465 295.52 28.6625 295.52 28.6947C295.52 28.7107 295.52 28.7268 295.504 28.7429C295.488 28.7589 295.472 28.7589 295.44 28.7589L295.52 28.8553H295.456L295.376 28.7589H295.36V28.8553H295.312V28.6143H295.424ZM295.408 28.9357C295.44 28.9357 295.456 28.9357 295.488 28.9196C295.52 28.9035 295.536 28.8875 295.552 28.8714C295.568 28.8553 295.584 28.8393 295.6 28.8071C295.616 28.775 295.616 28.7589 295.616 28.7268C295.616 28.6947 295.616 28.6786 295.6 28.6465C295.584 28.6143 295.568 28.5983 295.552 28.5822C295.536 28.5661 295.52 28.5501 295.488 28.534C295.472 28.5179 295.44 28.5179 295.408 28.5179C295.376 28.5179 295.36 28.5179 295.328 28.534C295.296 28.5501 295.28 28.5661 295.264 28.5822C295.248 28.5983 295.232 28.6304 295.216 28.6465C295.2 28.6786 295.2 28.6947 295.2 28.7268C295.2 28.7589 295.2 28.775 295.216 28.8071C295.232 28.8393 295.248 28.8553 295.264 28.8714C295.28 28.8875 295.312 28.9035 295.328 28.9196C295.36 28.9357 295.376 28.9357 295.408 28.9357ZM295.408 28.4697C295.44 28.4697 295.472 28.4697 295.504 28.4858C295.536 28.5019 295.568 28.5179 295.584 28.534C295.6 28.5501 295.632 28.5822 295.648 28.6143C295.664 28.6465 295.664 28.6786 295.664 28.7107C295.664 28.7429 295.664 28.775 295.648 28.8071C295.632 28.8393 295.616 28.8714 295.584 28.8875C295.552 28.9035 295.536 28.9357 295.504 28.9517C295.472 28.9678 295.44 28.9678 295.408 28.9678C295.376 28.9678 295.328 28.9678 295.296 28.9517C295.264 28.9357 295.232 28.9196 295.216 28.8875C295.2 28.8714 295.168 28.8393 295.152 28.8071C295.136 28.775 295.136 28.7429 295.136 28.7107C295.136 28.6786 295.136 28.6465 295.152 28.6143C295.168 28.5822 295.184 28.5501 295.216 28.534C295.232 28.5179 295.264 28.4858 295.296 28.4858C295.328 28.4697 295.376 28.4697 295.408 28.4697Z" fill="white"/></g><g clip-path="url(#clip4_866_73)"><path d="M335.8 28.9451V27.286C335.8 26.6513 335.415 26.2357 334.756 26.2357C334.426 26.2357 334.067 26.3453 333.821 26.7061C333.628 26.4032 333.353 26.2357 332.94 26.2357C332.664 26.2357 332.389 26.3195 332.171 26.6223V26.2905H331.595V28.9451H332.171V27.4793C332.171 27.0089 332.418 26.7866 332.802 26.7866C333.186 26.7866 333.379 27.0347 333.379 27.4793V28.9451H333.955V27.4793C333.955 27.0089 334.23 26.7866 334.586 26.7866C334.97 26.7866 335.162 27.0347 335.162 27.4793V28.9451H335.8ZM344.351 26.2905H343.415V25.4883H342.839V26.2905H342.317V26.8156H342.839V28.0334C342.839 28.6423 343.086 28.9999 343.745 28.9999C343.992 28.9999 344.267 28.9161 344.459 28.8066L344.293 28.3072C344.126 28.4168 343.934 28.4458 343.796 28.4458C343.521 28.4458 343.412 28.2782 343.412 28.0044V26.8156H344.347V26.2905H344.351ZM349.244 26.2325C348.914 26.2325 348.693 26.4 348.555 26.6191V26.2873H347.979V28.9419H348.555V27.4471C348.555 27.0057 348.748 26.7544 349.106 26.7544C349.215 26.7544 349.353 26.7834 349.465 26.8092L349.632 26.2551C349.516 26.2325 349.353 26.2325 349.244 26.2325ZM341.849 26.5096C341.574 26.3163 341.19 26.2325 340.776 26.2325C340.117 26.2325 339.678 26.5643 339.678 27.0895C339.678 27.5308 340.008 27.7821 340.584 27.8627L340.86 27.8917C341.161 27.9464 341.327 28.0302 341.327 28.1687C341.327 28.362 341.106 28.5005 340.722 28.5005C340.338 28.5005 340.033 28.362 339.841 28.2235L339.566 28.6648C339.867 28.8871 340.28 28.9967 340.693 28.9967C341.462 28.9967 341.904 28.6359 341.904 28.1397C341.904 27.6694 341.545 27.4213 340.997 27.3375L340.722 27.3085C340.475 27.2795 340.283 27.2248 340.283 27.0605C340.283 26.8672 340.475 26.7576 340.78 26.7576C341.11 26.7576 341.439 26.8962 341.606 26.9799L341.849 26.5096ZM357.186 26.2325C356.857 26.2325 356.636 26.4 356.498 26.6191V26.2873H355.921V28.9419H356.498V27.4471C356.498 27.0057 356.69 26.7544 357.049 26.7544C357.158 26.7544 357.295 26.7834 357.407 26.8092L357.574 26.2615C357.462 26.2325 357.298 26.2325 357.186 26.2325ZM349.821 27.6178C349.821 28.42 350.371 28.9999 351.223 28.9999C351.608 28.9999 351.883 28.9161 352.158 28.6971L351.883 28.2267C351.662 28.3942 351.444 28.4748 351.194 28.4748C350.727 28.4748 350.397 28.1429 350.397 27.6178C350.397 27.1185 350.727 26.7866 351.194 26.7609C351.441 26.7609 351.662 26.8446 351.883 27.0089L352.158 26.5386C351.883 26.3163 351.608 26.2357 351.223 26.2357C350.371 26.2325 349.821 26.8156 349.821 27.6178ZM355.153 27.6178V26.2905H354.576V26.6223C354.384 26.3743 354.109 26.2357 353.75 26.2357C353.007 26.2357 352.431 26.8156 352.431 27.6178C352.431 28.42 353.007 28.9999 353.75 28.9999C354.134 28.9999 354.41 28.8614 354.576 28.6133V28.9451H355.153V27.6178ZM353.036 27.6178C353.036 27.1475 353.337 26.7609 353.833 26.7609C354.301 26.7609 354.631 27.1217 354.631 27.6178C354.631 28.0882 354.301 28.4748 353.833 28.4748C353.34 28.4458 353.036 28.085 353.036 27.6178ZM346.138 26.2325C345.369 26.2325 344.818 26.7866 344.818 27.6146C344.818 28.4458 345.369 28.9967 346.166 28.9967C346.551 28.9967 346.935 28.8871 347.239 28.6359L346.964 28.2203C346.743 28.3878 346.467 28.4973 346.195 28.4973C345.837 28.4973 345.481 28.3298 345.398 27.8627H347.348C347.348 27.7789 347.348 27.7241 347.348 27.6404C347.374 26.7866 346.877 26.2325 346.138 26.2325ZM346.138 26.7319C346.496 26.7319 346.743 26.9542 346.797 27.3665H345.423C345.478 27.0089 345.724 26.7319 346.138 26.7319ZM360.459 27.6178V25.2402H359.883V26.6223C359.691 26.3743 359.415 26.2357 359.057 26.2357C358.314 26.2357 357.737 26.8156 357.737 27.6178C357.737 28.42 358.314 28.9999 359.057 28.9999C359.441 28.9999 359.716 28.8614 359.883 28.6133V28.9451H360.459V27.6178ZM358.343 27.6178C358.343 27.1475 358.644 26.7609 359.14 26.7609C359.608 26.7609 359.937 27.1217 359.937 27.6178C359.937 28.0882 359.608 28.4748 359.14 28.4748C358.644 28.4458 358.343 28.085 358.343 27.6178ZM339.044 27.6178V26.2905H338.467V26.6223C338.275 26.3743 338 26.2357 337.641 26.2357C336.898 26.2357 336.322 26.8156 336.322 27.6178C336.322 28.42 336.898 28.9999 337.641 28.9999C338.025 28.9999 338.301 28.8614 338.467 28.6133V28.9451H339.044V27.6178ZM336.901 27.6178C336.901 27.1475 337.202 26.7609 337.699 26.7609C338.166 26.7609 338.496 27.1217 338.496 27.6178C338.496 28.0882 338.166 28.4748 337.699 28.4748C337.202 28.4458 336.901 28.085 336.901 27.6178Z" fill="white"/><path d="M350.317 6.12939H341.657V21.7802H350.317V6.12939Z" fill="#FF5A00"/><path d="M342.234 13.9549C342.234 10.7751 343.72 7.95296 346 6.12951C344.322 4.80219 342.205 4 339.896 4C334.426 4 330 8.45232 330 13.9549C330 19.4575 334.426 23.9098 339.896 23.9098C342.205 23.9098 344.322 23.1076 346 21.7803C343.717 19.9826 342.234 17.1347 342.234 13.9549Z" fill="#EB001B"/><path d="M362 13.9549C362 19.4575 357.574 23.9098 352.104 23.9098C349.795 23.9098 347.678 23.1076 346 21.7803C348.309 19.9536 349.766 17.1347 349.766 13.9549C349.766 10.7751 348.28 7.95296 346 6.12951C347.675 4.80219 349.792 4 352.101 4C357.574 4 362 8.48131 362 13.9549Z" fill="#F79E1B"/></g><defs><clipPath id="clip0_866_73"><rect width="75" height="25" fill="white" transform="translate(0 4)"/></clipPath><clipPath id="clip1_866_73"><rect width="75" height="36" fill="white" transform="translate(105)"/></clipPath><clipPath id="clip2_866_73"><rect width="28" height="25" fill="white" transform="translate(210 4)"/></clipPath><clipPath id="clip3_866_73"><rect width="32" height="25" fill="white" transform="translate(268 4)"/></clipPath><clipPath id="clip4_866_73"><rect width="32" height="25" fill="white" transform="translate(330 4)"/></clipPath></defs></svg>