<svg width="182" height="60" viewBox="0 0 182 60" fill="none" xmlns="http://www.w3.org/2000/svg">
<path d="M75.1847 26.8368C74.9006 26.8368 74.5556 26.83 74.1498 26.8164C73.7574 26.8029 73.338 26.7757 72.8916 26.7349C72.4587 26.7078 72.046 26.6806 71.6537 26.6534C71.2749 26.6126 70.9637 26.5651 70.7202 26.5107V25.614C71.0314 25.6412 71.4237 25.6684 71.8972 25.6955C72.3843 25.7227 72.9051 25.7431 73.4598 25.7567C74.028 25.7703 74.5895 25.7771 75.1441 25.7771C75.78 25.7771 76.3617 25.7159 76.8894 25.5936C77.417 25.4578 77.8364 25.2132 78.1475 24.86C78.4587 24.4931 78.6143 23.9632 78.6143 23.2703V22.129C78.6143 21.3682 78.4249 20.7839 78.0461 20.3763C77.6673 19.9687 77.0449 19.7649 76.1791 19.7649H74.4542C73.2907 19.7649 72.3707 19.5136 71.6943 19.0109C71.0314 18.4946 70.6999 17.591 70.6999 16.3003V15.424C70.6999 14.0245 71.0652 13.0463 71.7958 12.4892C72.5263 11.9186 73.5477 11.6333 74.86 11.6333C75.2659 11.6333 75.7326 11.6536 76.2603 11.6944C76.8014 11.7352 77.329 11.7827 77.8431 11.8371C78.3572 11.8914 78.7699 11.9458 79.081 12.0001V12.8968C78.4993 12.8561 77.8364 12.8153 77.0923 12.7745C76.3482 12.7202 75.6379 12.693 74.9615 12.693C74.3121 12.693 73.7507 12.7745 73.2772 12.9376C72.8172 13.087 72.4587 13.3656 72.2016 13.7732C71.9581 14.1672 71.8363 14.731 71.8363 15.4647V16.2595C71.8363 17.1699 72.0663 17.7948 72.5263 18.1345C72.9998 18.4606 73.6492 18.6236 74.4745 18.6236H76.2806C77.0788 18.6236 77.7349 18.7731 78.249 19.072C78.7631 19.3573 79.1419 19.7581 79.3854 20.2744C79.6289 20.7771 79.7507 21.3546 79.7507 22.0067V23.2499C79.7507 24.2146 79.541 24.9551 79.1216 25.4714C78.7022 25.9877 78.1475 26.3477 77.4576 26.5515C76.7676 26.7417 76.01 26.8368 75.1847 26.8368Z" fill="white"/>
<path d="M81.8449 26.7145L87.1008 11.7555H88.6228L93.8788 26.7145H92.6409L90.9971 22.0679H84.7062L83.0828 26.7145H81.8449ZM85.0106 21.0081H90.6522L87.8517 12.8153L85.0106 21.0081Z" fill="white"/>
<path d="M96.6366 26.7145V11.7555H97.631L105.87 24.6562V11.7555H107.047V26.7145H106.073L97.8136 13.8139V26.7145H96.6366Z" fill="white"/>
<path d="M114.876 26.8368C113.969 26.8368 113.185 26.7349 112.522 26.5311C111.872 26.3273 111.331 25.9605 110.898 25.4306C110.479 24.8871 110.168 24.1127 109.965 23.1073C109.762 22.1018 109.66 20.7975 109.66 19.1943C109.66 17.6862 109.762 16.443 109.965 15.4647C110.181 14.4729 110.506 13.6984 110.939 13.1414C111.372 12.5843 111.927 12.1971 112.603 11.9797C113.279 11.7487 114.084 11.6333 115.018 11.6333C115.37 11.6333 115.782 11.6536 116.256 11.6944C116.743 11.7352 117.243 11.7895 117.757 11.8574C118.272 11.9254 118.745 12.0137 119.178 12.1224V12.9987C118.961 12.9444 118.637 12.8968 118.204 12.8561C117.771 12.8153 117.284 12.7813 116.743 12.7542C116.215 12.7134 115.688 12.693 115.16 12.693C114.375 12.693 113.706 12.7881 113.151 12.9783C112.61 13.155 112.17 13.4811 111.832 13.9566C111.494 14.4185 111.243 15.0775 111.081 15.9335C110.919 16.7758 110.837 17.8628 110.837 19.1943C110.837 20.5937 110.912 21.7282 111.061 22.5978C111.223 23.4673 111.467 24.1331 111.791 24.595C112.129 25.0434 112.569 25.3559 113.11 25.5325C113.651 25.6955 114.308 25.7771 115.079 25.7771C116.093 25.7771 116.925 25.7499 117.575 25.6955C118.238 25.6276 118.772 25.5665 119.178 25.5121V26.3885C118.759 26.47 118.299 26.5447 117.798 26.6126C117.297 26.6806 116.797 26.7349 116.296 26.7757C115.796 26.8164 115.322 26.8368 114.876 26.8368Z" fill="white"/>
<path d="M125.227 26.7145V12.8153H120.458V11.7555H131.173V12.8153H126.404V26.7145H125.227Z" fill="white"/>
<path d="M138.308 26.8368C137.483 26.8368 136.732 26.7621 136.055 26.6126C135.392 26.4496 134.824 26.1915 134.351 25.8382C133.891 25.4849 133.539 25.0094 133.295 24.4116C133.052 23.8002 132.93 23.0393 132.93 22.129V11.7555H134.107V22.129C134.107 23.0801 134.269 23.8206 134.594 24.3504C134.932 24.8667 135.413 25.2336 136.035 25.451C136.671 25.6548 137.428 25.7567 138.308 25.7567C139.201 25.7567 139.958 25.6548 140.581 25.451C141.203 25.2336 141.677 24.8667 142.001 24.3504C142.339 23.8206 142.509 23.0801 142.509 22.129V11.7555H143.686V22.129C143.686 23.0393 143.564 23.8002 143.32 24.4116C143.09 25.0094 142.739 25.4849 142.265 25.8382C141.805 26.1915 141.237 26.4496 140.56 26.6126C139.897 26.7621 139.147 26.8368 138.308 26.8368Z" fill="white"/>
<path d="M145.321 26.7145L150.577 11.7555H152.099L157.355 26.7145H156.117L154.473 22.0679H148.182L146.559 26.7145H145.321ZM148.486 21.0081H154.128L151.328 12.8153L148.486 21.0081Z" fill="white"/>
<path d="M159.788 26.7145V11.7555H165.571C166.018 11.7555 166.464 11.8099 166.911 11.9186C167.357 12.0137 167.763 12.2107 168.128 12.5096C168.494 12.7949 168.784 13.2229 169.001 13.7936C169.217 14.3642 169.326 15.1115 169.326 16.0354C169.326 16.8913 169.231 17.591 169.041 18.1345C168.852 18.6644 168.609 19.0788 168.311 19.3777C168.013 19.6766 167.689 19.894 167.337 20.0299C166.985 20.1521 166.654 20.2337 166.342 20.2744L169.468 26.7145H168.291L165.226 20.3967C164.996 20.3967 164.699 20.3967 164.333 20.3967C163.968 20.3831 163.583 20.3763 163.177 20.3763C162.771 20.3627 162.372 20.3492 161.979 20.3356C161.587 20.322 161.249 20.3152 160.965 20.3152V26.7145H159.788ZM160.965 19.4185H165.429C165.795 19.4185 166.14 19.3777 166.464 19.2962C166.789 19.2147 167.08 19.0584 167.337 18.8274C167.594 18.5829 167.79 18.2364 167.925 17.7881C168.074 17.3397 168.149 16.7555 168.149 16.0354C168.149 15.3424 168.074 14.7854 167.925 14.3642C167.777 13.943 167.574 13.6237 167.317 13.4063C167.06 13.1754 166.769 13.0191 166.444 12.9376C166.119 12.8561 165.781 12.8153 165.429 12.8153H160.965V19.4185Z" fill="white"/>
<path d="M175.993 26.7145V21.6195L171.184 11.7555H172.422L176.602 20.4375L180.782 11.7555H182L177.17 21.6195V26.7145H175.993Z" fill="white"/>
<path d="M75.2052 47.217C74.84 47.217 74.4476 47.2034 74.0282 47.1762C73.6224 47.1626 73.203 47.1355 72.7701 47.0947C72.3507 47.0403 71.9516 46.9928 71.5728 46.952C71.1939 46.8977 70.8557 46.8365 70.5581 46.7686V44.7917C70.9369 44.8189 71.3766 44.8461 71.8772 44.8733C72.3913 44.9004 72.9256 44.9208 73.4803 44.9344C74.035 44.948 74.5694 44.9548 75.0835 44.9548C75.6246 44.9548 76.1049 44.9072 76.5243 44.8121C76.9437 44.7034 77.2684 44.52 77.4984 44.2619C77.7284 44.0037 77.8434 43.6369 77.8434 43.1613V42.448C77.8434 41.9181 77.6946 41.5105 77.3969 41.2252C77.0993 40.9399 76.6596 40.7972 76.0779 40.7972H74.6776C73.3112 40.7972 72.256 40.4983 71.5119 39.9005C70.7813 39.3027 70.416 38.2769 70.416 36.8231V36.0487C70.416 34.5949 70.8151 33.5487 71.6133 32.9101C72.4251 32.258 73.5818 31.9319 75.0835 31.9319C75.5976 31.9319 76.1252 31.9591 76.6664 32.0134C77.221 32.0542 77.7487 32.1085 78.2492 32.1764C78.7498 32.2444 79.176 32.3191 79.5277 32.4006V34.3775C78.9324 34.3367 78.2492 34.296 77.4781 34.2552C76.7205 34.2145 76.017 34.1941 75.3676 34.1941C74.8535 34.1941 74.4003 34.2484 74.0079 34.3571C73.6156 34.4658 73.318 34.6628 73.115 34.9481C72.9121 35.2199 72.8106 35.6275 72.8106 36.1709V36.6601C72.8106 37.2986 72.9798 37.747 73.318 38.0052C73.6697 38.2633 74.1703 38.3924 74.8197 38.3924H76.3823C77.2616 38.3924 77.9854 38.5554 78.5536 38.8815C79.1219 39.2076 79.5412 39.6559 79.8118 40.2266C80.0959 40.7836 80.238 41.4222 80.238 42.1423V43.1002C80.238 44.2143 80.0215 45.0703 79.5886 45.6681C79.1557 46.2659 78.5604 46.6735 77.8028 46.8909C77.0452 47.1083 76.1793 47.217 75.2052 47.217Z" fill="#FF2A00"/>
<path d="M86.3252 47.0947V42.3869L81.7389 32.0542H84.3364L87.6239 39.819L90.9114 32.0542H93.4481L88.8415 42.3869V47.0947H86.3252Z" fill="#FF2A00"/>
<path d="M99.7395 47.217C99.3742 47.217 98.9819 47.2034 98.5625 47.1762C98.1566 47.1626 97.7372 47.1355 97.3043 47.0947C96.8849 47.0403 96.4858 46.9928 96.107 46.952C95.7282 46.8977 95.39 46.8365 95.0923 46.7686V44.7917C95.4711 44.8189 95.9108 44.8461 96.4114 44.8733C96.9255 44.9004 97.4599 44.9208 98.0145 44.9344C98.5692 44.948 99.1036 44.9548 99.6177 44.9548C100.159 44.9548 100.639 44.9072 101.059 44.8121C101.478 44.7034 101.803 44.52 102.033 44.2619C102.263 44.0037 102.378 43.6369 102.378 43.1613V42.448C102.378 41.9181 102.229 41.5105 101.931 41.2252C101.634 40.9399 101.194 40.7972 100.612 40.7972H99.2119C97.8454 40.7972 96.7902 40.4983 96.0461 39.9005C95.3155 39.3027 94.9503 38.2769 94.9503 36.8231V36.0487C94.9503 34.5949 95.3494 33.5487 96.1476 32.9101C96.9593 32.258 98.116 31.9319 99.6177 31.9319C100.132 31.9319 100.659 31.9591 101.201 32.0134C101.755 32.0542 102.283 32.1085 102.783 32.1764C103.284 32.2444 103.71 32.3191 104.062 32.4006V34.3775C103.467 34.3367 102.783 34.296 102.012 34.2552C101.255 34.2145 100.551 34.1941 99.9018 34.1941C99.3877 34.1941 98.9345 34.2484 98.5422 34.3571C98.1498 34.4658 97.8522 34.6628 97.6493 34.9481C97.4463 35.2199 97.3449 35.6275 97.3449 36.1709V36.6601C97.3449 37.2986 97.514 37.747 97.8522 38.0052C98.204 38.2633 98.7045 38.3924 99.3539 38.3924H100.916C101.796 38.3924 102.52 38.5554 103.088 38.8815C103.656 39.2076 104.075 39.6559 104.346 40.2266C104.63 40.7836 104.772 41.4222 104.772 42.1423V43.1002C104.772 44.2143 104.556 45.0703 104.123 45.6681C103.69 46.2659 103.095 46.6735 102.337 46.8909C101.579 47.1083 100.714 47.217 99.7395 47.217Z" fill="#FF2A00"/>
<path d="M110.413 47.0947V34.3164H106.111V32.0542H117.211V34.3164H112.929V47.0947H110.413Z" fill="#FF2A00"/>
<path d="M122.21 47.1966C121.885 47.1966 121.52 47.1626 121.114 47.0947C120.722 47.0403 120.343 46.9113 119.978 46.7075C119.613 46.4901 119.315 46.1708 119.085 45.7496C118.855 45.3284 118.74 44.751 118.74 44.0173V35.3354C118.74 34.6968 118.835 34.1669 119.024 33.7457C119.213 33.3109 119.464 32.9713 119.775 32.7267C120.1 32.4821 120.451 32.3123 120.83 32.2172C121.223 32.1085 121.608 32.0542 121.987 32.0542C122.934 32.0542 123.786 32.0678 124.544 32.0949C125.301 32.1221 125.991 32.1493 126.614 32.1764C127.25 32.2036 127.838 32.2376 128.379 32.2783V34.3775H122.717C122.257 34.3775 121.892 34.493 121.622 34.724C121.365 34.9549 121.236 35.315 121.236 35.8041V38.4739L127.466 38.6166V40.5934L121.236 40.7361V43.3244C121.236 43.732 121.304 44.0445 121.439 44.2619C121.588 44.4792 121.77 44.6287 121.987 44.7102C122.217 44.7917 122.454 44.8325 122.697 44.8325H128.379V46.9317C127.784 46.986 127.135 47.0336 126.431 47.0743C125.728 47.1015 125.011 47.1219 124.28 47.1355C123.563 47.1626 122.873 47.183 122.21 47.1966Z" fill="#FF2A00"/>
<path d="M130.383 47.0947L132.108 32.0542H134.543L138.176 44.0988L141.788 32.0542H144.223L145.989 47.0947H143.554L142.174 35.2742L142.579 35.315L139.333 47.0947H136.979L133.691 35.315L134.117 35.2946L132.798 47.0947H130.383Z" fill="#FF2A00"/>
<path d="M152.791 47.217C152.426 47.217 152.034 47.2034 151.614 47.1762C151.208 47.1626 150.789 47.1355 150.356 47.0947C149.937 47.0403 149.538 46.9928 149.159 46.952C148.78 46.8977 148.442 46.8365 148.144 46.7686V44.7917C148.523 44.8189 148.963 44.8461 149.463 44.8733C149.977 44.9004 150.512 44.9208 151.066 44.9344C151.621 44.948 152.155 44.9548 152.67 44.9548C153.211 44.9548 153.691 44.9072 154.11 44.8121C154.53 44.7034 154.854 44.52 155.084 44.2619C155.314 44.0037 155.429 43.6369 155.429 43.1613V42.448C155.429 41.9181 155.281 41.5105 154.983 41.2252C154.685 40.9399 154.246 40.7972 153.664 40.7972H152.264C150.897 40.7972 149.842 40.4983 149.098 39.9005C148.367 39.3027 148.002 38.2769 148.002 36.8231V36.0487C148.002 34.5949 148.401 33.5487 149.199 32.9101C150.011 32.258 151.168 31.9319 152.67 31.9319C153.184 31.9319 153.711 31.9591 154.252 32.0134C154.807 32.0542 155.335 32.1085 155.835 32.1764C156.336 32.2444 156.762 32.3191 157.114 32.4006V34.3775C156.518 34.3367 155.835 34.296 155.064 34.2552C154.306 34.2145 153.603 34.1941 152.954 34.1941C152.44 34.1941 151.986 34.2484 151.594 34.3571C151.202 34.4658 150.904 34.6628 150.701 34.9481C150.498 35.2199 150.397 35.6275 150.397 36.1709V36.6601C150.397 37.2986 150.566 37.747 150.904 38.0052C151.256 38.2633 151.756 38.3924 152.406 38.3924H153.968C154.848 38.3924 155.571 38.5554 156.14 38.8815C156.708 39.2076 157.127 39.6559 157.398 40.2266C157.682 40.7836 157.824 41.4222 157.824 42.1423V43.1002C157.824 44.2143 157.608 45.0703 157.175 45.6681C156.742 46.2659 156.146 46.6735 155.389 46.8909C154.631 47.1083 153.765 47.217 152.791 47.217Z" fill="#FF2A00"/>
<path fill-rule="evenodd" clip-rule="evenodd" d="M29.8914 1.65244C14.2916 1.65244 1.6454 14.3527 1.6454 30.0194C1.6454 42.9119 10.2103 53.7974 21.9386 57.2467V52.0309C12.9818 48.7663 6.58159 40.1445 6.58159 30.0194C6.58159 17.0906 17.0178 6.60977 29.8914 6.60977C42.7651 6.60977 53.2012 17.0906 53.2012 30.0194C53.2012 39.4869 47.605 47.64 39.5568 51.3277L38.3926 51.8611V42.5404L38.7325 42.293C42.516 39.5392 44.9742 35.0676 44.9742 30.0194C44.9742 21.6537 38.2214 14.872 29.8914 14.872C21.5614 14.872 14.8086 21.6537 14.8086 30.0194C14.8086 37.8554 20.7341 44.3026 28.3301 45.0866L29.0687 45.1629V59.1665C29.0687 59.6228 28.7004 59.9927 28.246 59.9927C27.7916 59.9927 27.4233 59.6228 27.4233 59.1665V46.6375C19.3545 45.4388 13.1632 38.4557 13.1632 30.0194C13.1632 20.7411 20.6527 13.2195 29.8914 13.2195C39.1302 13.2195 46.6196 20.7411 46.6196 30.0194C46.6196 35.4668 44.0372 40.3086 40.038 43.3769V49.2478C46.8911 45.5928 51.5558 38.3524 51.5558 30.0194C51.5558 18.0032 41.8563 8.26221 29.8914 8.26221C17.9265 8.26221 8.22699 18.0032 8.22699 30.0194C8.22699 39.623 14.4232 47.7753 23.022 50.6603L23.584 50.8488V59.3883L22.5602 59.129C9.59647 55.8461 0 44.0592 0 30.0194C0 13.4401 13.3828 0 29.8914 0C46.4 0 59.7828 13.4401 59.7828 30.0194C59.7828 45.2567 48.4794 57.8414 33.834 59.7798L32.9038 59.903V39.7526C31.9514 40.0496 30.9394 40.2094 29.8914 40.2094C24.2876 40.2094 19.7448 35.6472 19.7448 30.0194C19.7448 24.3916 24.2876 19.8293 29.8914 19.8293C35.4952 19.8293 40.038 24.3916 40.038 30.0194C40.038 33.9622 37.8083 37.3804 34.5492 39.0745V58.0026C47.9324 55.7729 58.1374 44.0924 58.1374 30.0194C58.1374 14.3527 45.4912 1.65244 29.8914 1.65244ZM29.8914 21.4817C25.1963 21.4817 21.3902 25.3042 21.3902 30.0194C21.3902 34.7346 25.1963 38.557 29.8914 38.557C31.1393 38.557 32.3223 38.2875 33.3877 37.804C36.3405 36.4642 38.3926 33.4816 38.3926 30.0194C38.3926 25.3042 34.5865 21.4817 29.8914 21.4817Z" fill="white"/>
<path d="M29.0687 59.1665C29.0687 59.6228 28.7004 59.9927 28.246 59.9927L29.0709 60L29.0687 59.1665Z" fill="white"/>
<path d="M28.246 59.9927C27.7916 59.9927 27.4233 59.6228 27.4233 59.1665L27.4239 59.9535L28.246 59.9927Z" fill="white"/>
</svg>
