<svg width="173" height="60" viewBox="0 0 173 60" fill="none" xmlns="http://www.w3.org/2000/svg">
<path d="M75.8579 27.1349C75.5996 27.1349 75.2858 27.1288 74.9167 27.1166C74.5599 27.1044 74.1785 27.0799 73.7725 27.0432C73.3788 27.0187 73.0035 26.9943 72.6467 26.9698C72.3022 26.9331 72.0192 26.8903 71.7977 26.8414V26.0341C72.0807 26.0586 72.4375 26.083 72.8682 26.1075C73.3111 26.132 73.7848 26.1503 74.2892 26.1625C74.806 26.1748 75.3166 26.1809 75.821 26.1809C76.3993 26.1809 76.9284 26.1258 77.4082 26.0158C77.888 25.8934 78.2695 25.6733 78.5524 25.3553C78.8354 25.025 78.9769 24.548 78.9769 23.9242V22.8968C78.9769 22.2118 78.8047 21.6858 78.4602 21.3189C78.1157 20.952 77.5497 20.7685 76.7623 20.7685H75.1935C74.1354 20.7685 73.2988 20.5422 72.6836 20.0896C72.0807 19.6248 71.7793 18.8115 71.7793 17.6495V16.8606C71.7793 15.6007 72.1115 14.7201 72.7759 14.2186C73.4403 13.7049 74.3692 13.448 75.5627 13.448C75.9318 13.448 76.3562 13.4663 76.8361 13.503C77.3282 13.5397 77.8081 13.5825 78.2756 13.6315C78.7432 13.6804 79.1184 13.7293 79.4014 13.7782V14.5855C78.8723 14.5488 78.2695 14.5121 77.5928 14.4754C76.9161 14.4265 76.2701 14.402 75.6549 14.402C75.0644 14.402 74.5538 14.4754 74.1231 14.6222C73.7048 14.7568 73.3788 15.0075 73.145 15.3744C72.9235 15.7291 72.8128 16.2368 72.8128 16.8972V17.6128C72.8128 18.4323 73.0219 18.9949 73.4403 19.3007C73.8709 19.5943 74.4615 19.7411 75.212 19.7411H76.8545C77.5805 19.7411 78.1772 19.8756 78.6447 20.1447C79.1123 20.4015 79.4568 20.7624 79.6782 21.2272C79.8997 21.6797 80.0104 22.1996 80.0104 22.7867V23.9058C80.0104 24.7743 79.8197 25.4409 79.4383 25.9057C79.0569 26.3705 78.5524 26.6946 77.925 26.8781C77.2975 27.0493 76.6085 27.1349 75.8579 27.1349Z" fill="white"/>
<path d="M81.9149 27.0249L86.6949 13.5581H88.0791L92.8591 27.0249H91.7333L90.2384 22.8417H84.5172L83.0407 27.0249H81.9149ZM84.794 21.8877H89.9246L87.3778 14.5121L84.794 21.8877Z" fill="white"/>
<path d="M95.3671 27.0249V13.5581H96.2714L103.764 25.1718V13.5581H104.835V27.0249H103.949L96.4375 15.4111V27.0249H95.3671Z" fill="white"/>
<path d="M111.955 27.1349C111.13 27.1349 110.417 27.0432 109.814 26.8597C109.223 26.6763 108.731 26.346 108.337 25.869C107.956 25.3797 107.673 24.6825 107.488 23.7774C107.304 22.8723 107.212 21.6981 107.212 20.2548C107.212 18.8971 107.304 17.7779 107.488 16.8972C107.685 16.0044 107.98 15.3072 108.374 14.8057C108.768 14.3042 109.272 13.9556 109.888 13.7599C110.503 13.552 111.235 13.448 112.084 13.448C112.404 13.448 112.779 13.4663 113.21 13.503C113.652 13.5397 114.108 13.5887 114.575 13.6498C115.043 13.711 115.473 13.7905 115.867 13.8883V14.6772C115.67 14.6283 115.375 14.5855 114.981 14.5488C114.588 14.5121 114.145 14.4815 113.652 14.4571C113.173 14.4204 112.693 14.402 112.213 14.402C111.499 14.402 110.89 14.4877 110.386 14.6589C109.894 14.8179 109.494 15.1115 109.186 15.5396C108.879 15.9554 108.651 16.5487 108.503 17.3192C108.356 18.0776 108.282 19.0561 108.282 20.2548C108.282 21.5146 108.35 22.5359 108.485 23.3187C108.633 24.1015 108.854 24.7009 109.149 25.1168C109.457 25.5204 109.857 25.8017 110.349 25.9607C110.841 26.1075 111.438 26.1809 112.139 26.1809C113.062 26.1809 113.819 26.1564 114.409 26.1075C115.012 26.0463 115.498 25.9913 115.867 25.9424V26.7313C115.486 26.8047 115.067 26.872 114.612 26.9331C114.157 26.9943 113.702 27.0432 113.246 27.0799C112.791 27.1166 112.361 27.1349 111.955 27.1349Z" fill="white"/>
<path d="M121.369 27.0249V14.5121H117.032V13.5581H126.776V14.5121H122.439V27.0249H121.369Z" fill="white"/>
<path d="M133.265 27.1349C132.514 27.1349 131.831 27.0677 131.216 26.9331C130.613 26.7863 130.096 26.5539 129.666 26.2359C129.247 25.9179 128.928 25.4898 128.706 24.9516C128.485 24.4012 128.374 23.7163 128.374 22.8968V13.5581H129.444V22.8968C129.444 23.753 129.592 24.4196 129.887 24.8966C130.195 25.3614 130.632 25.6916 131.198 25.8873C131.776 26.0708 132.465 26.1625 133.265 26.1625C134.077 26.1625 134.766 26.0708 135.332 25.8873C135.898 25.6916 136.328 25.3614 136.624 24.8966C136.931 24.4196 137.085 23.753 137.085 22.8968V13.5581H138.155V22.8968C138.155 23.7163 138.045 24.4012 137.823 24.9516C137.614 25.4898 137.294 25.9179 136.863 26.2359C136.445 26.5539 135.928 26.7863 135.313 26.9331C134.71 27.0677 134.027 27.1349 133.265 27.1349Z" fill="white"/>
<path d="M139.642 27.0249L144.422 13.5581H145.807L150.587 27.0249H149.461L147.966 22.8417H142.245L140.768 27.0249H139.642ZM142.521 21.8877H147.652L145.105 14.5121L142.521 21.8877Z" fill="white"/>
<path d="M152.799 27.0249V13.5581H158.059C158.465 13.5581 158.871 13.607 159.277 13.7049C159.683 13.7905 160.052 13.9678 160.385 14.2369C160.717 14.4938 160.981 14.8791 161.178 15.3928C161.375 15.9065 161.473 16.5792 161.473 17.411C161.473 18.1815 161.387 18.8115 161.215 19.3007C161.043 19.7777 160.821 20.1508 160.551 20.4199C160.28 20.689 159.985 20.8847 159.665 21.007C159.345 21.1171 159.043 21.1905 158.76 21.2272L161.603 27.0249H160.532L157.745 21.3372C157.536 21.3372 157.266 21.3372 156.933 21.3372C156.601 21.325 156.25 21.3189 155.881 21.3189C155.512 21.3067 155.149 21.2944 154.793 21.2822C154.436 21.27 154.128 21.2639 153.87 21.2639V27.0249H152.799ZM153.87 20.4566H157.93C158.262 20.4566 158.576 20.4199 158.871 20.3465C159.166 20.2731 159.431 20.1325 159.665 19.9245C159.899 19.7044 160.077 19.3925 160.2 18.9888C160.335 18.5852 160.403 18.0592 160.403 17.411C160.403 16.7872 160.335 16.2857 160.2 15.9065C160.065 15.5273 159.88 15.2399 159.646 15.0442C159.413 14.8363 159.148 14.6956 158.853 14.6222C158.557 14.5488 158.25 14.5121 157.93 14.5121H153.87V20.4566Z" fill="white"/>
<path d="M167.537 27.0249V22.4381L163.163 13.5581H164.289L168.091 21.3739L171.893 13.5581H173L168.608 22.4381V27.0249H167.537Z" fill="white"/>
<path d="M75.8766 46.4738C75.5444 46.4738 75.1876 46.4616 74.8062 46.4371C74.4371 46.4249 74.0557 46.4004 73.662 46.3637C73.2805 46.3148 72.9176 46.272 72.5731 46.2353C72.2286 46.1864 71.921 46.1313 71.6503 46.0702V44.2905C71.9948 44.315 72.3947 44.3394 72.8499 44.3639C73.3174 44.3883 73.8034 44.4067 74.3079 44.4189C74.8123 44.4312 75.2983 44.4373 75.7659 44.4373C76.258 44.4373 76.6948 44.3945 77.0762 44.3088C77.4576 44.211 77.7529 44.0459 77.9621 43.8135C78.1712 43.5811 78.2758 43.2508 78.2758 42.8227V42.1806C78.2758 41.7036 78.1405 41.3366 77.8698 41.0798C77.5991 40.8229 77.1993 40.6945 76.6702 40.6945H75.3968C74.1541 40.6945 73.1944 40.4254 72.5177 39.8872C71.8533 39.349 71.5211 38.4255 71.5211 37.1168V36.4196C71.5211 35.1108 71.8841 34.169 72.61 33.5941C73.3482 33.007 74.4002 32.7135 75.7659 32.7135C76.2334 32.7135 76.7133 32.7379 77.2054 32.7869C77.7099 32.8236 78.1897 32.8725 78.6449 32.9336C79.1002 32.9948 79.4877 33.0621 79.8076 33.1355V34.9151C79.2663 34.8784 78.6449 34.8417 77.9436 34.805C77.2546 34.7683 76.6148 34.75 76.0243 34.75C75.5567 34.75 75.1445 34.7989 74.7877 34.8968C74.4309 34.9946 74.1603 35.172 73.9757 35.4288C73.7911 35.6735 73.6989 36.0404 73.6989 36.5297V36.97C73.6989 37.5449 73.8527 37.9485 74.1602 38.1809C74.4801 38.4133 74.9354 38.5295 75.526 38.5295H76.947C77.7468 38.5295 78.405 38.6763 78.9218 38.9698C79.4385 39.2634 79.8199 39.667 80.066 40.1807C80.3244 40.6822 80.4536 41.2571 80.4536 41.9054V42.7677C80.4536 43.7707 80.2567 44.5412 79.863 45.0794C79.4693 45.6176 78.9279 45.9845 78.2389 46.1803C77.5499 46.376 76.7625 46.4738 75.8766 46.4738Z" fill="#FF2A00"/>
<path d="M85.9895 46.3637V42.1255L81.8186 32.8236H84.1809L87.1706 39.8138L90.1604 32.8236H92.4674L88.278 42.1255V46.3637H85.9895Z" fill="#FF2A00"/>
<path d="M98.189 46.4738C97.8568 46.4738 97.5 46.4616 97.1186 46.4371C96.7495 46.4249 96.3681 46.4004 95.9743 46.3637C95.5929 46.3148 95.23 46.272 94.8855 46.2353C94.541 46.1864 94.2334 46.1313 93.9627 46.0702V44.2905C94.3072 44.315 94.7071 44.3394 95.1623 44.3639C95.6298 44.3883 96.1158 44.4067 96.6203 44.4189C97.1247 44.4312 97.6107 44.4373 98.0783 44.4373C98.5704 44.4373 99.0072 44.3945 99.3886 44.3088C99.77 44.211 100.065 44.0459 100.274 43.8135C100.484 43.5811 100.588 43.2508 100.588 42.8227V42.1806C100.588 41.7036 100.453 41.3366 100.182 41.0798C99.9115 40.8229 99.5117 40.6945 98.9826 40.6945H97.7092C96.4665 40.6945 95.5068 40.4254 94.8301 39.8872C94.1657 39.349 93.8335 38.4255 93.8335 37.1168V36.4196C93.8335 35.1108 94.1965 34.169 94.9224 33.5941C95.6606 33.007 96.7126 32.7135 98.0783 32.7135C98.5458 32.7135 99.0257 32.7379 99.5178 32.7869C100.022 32.8236 100.502 32.8725 100.957 32.9336C101.413 32.9948 101.8 33.0621 102.12 33.1355V34.9151C101.579 34.8784 100.957 34.8417 100.256 34.805C99.567 34.7683 98.9272 34.75 98.3367 34.75C97.8691 34.75 97.4569 34.7989 97.1001 34.8968C96.7433 34.9946 96.4726 35.172 96.2881 35.4288C96.1035 35.6735 96.0113 36.0404 96.0113 36.5297V36.97C96.0113 37.5449 96.1651 37.9485 96.4726 38.1809C96.7925 38.4133 97.2478 38.5295 97.8383 38.5295H99.2594C100.059 38.5295 100.717 38.6763 101.234 38.9698C101.751 39.2634 102.132 39.667 102.378 40.1807C102.637 40.6822 102.766 41.2571 102.766 41.9054V42.7677C102.766 43.7707 102.569 44.5412 102.175 45.0794C101.782 45.6176 101.24 45.9845 100.551 46.1803C99.8623 46.376 99.0749 46.4738 98.189 46.4738Z" fill="#FF2A00"/>
<path d="M107.896 46.3637V34.8601H103.983V32.8236H114.078V34.8601H110.184V46.3637H107.896Z" fill="#FF2A00"/>
<path d="M118.625 46.4555C118.329 46.4555 117.997 46.4249 117.628 46.3637C117.271 46.3148 116.927 46.1986 116.595 46.0151C116.262 45.8194 115.992 45.532 115.783 45.1528C115.573 44.7736 115.469 44.2538 115.469 43.5933V35.7774C115.469 35.2026 115.555 34.7255 115.727 34.3464C115.899 33.955 116.127 33.6492 116.41 33.429C116.705 33.2088 117.025 33.0559 117.37 32.9703C117.727 32.8725 118.077 32.8236 118.422 32.8236C119.283 32.8236 120.058 32.8358 120.747 32.8602C121.436 32.8847 122.064 32.9092 122.63 32.9336C123.208 32.9581 123.743 32.9887 124.235 33.0254V34.9151H119.086C118.668 34.9151 118.336 35.0191 118.09 35.227C117.856 35.435 117.739 35.7591 117.739 36.1994V38.6029L123.405 38.7313V40.511L117.739 40.6394V42.9695C117.739 43.3364 117.8 43.6178 117.923 43.8135C118.059 44.0092 118.225 44.1437 118.422 44.2171C118.631 44.2905 118.846 44.3272 119.068 44.3272H124.235V46.2169C123.694 46.2659 123.103 46.3087 122.463 46.3454C121.824 46.3698 121.172 46.3882 120.507 46.4004C119.855 46.4249 119.228 46.4432 118.625 46.4555Z" fill="#FF2A00"/>
<path d="M126.058 46.3637L127.626 32.8236H129.841L133.145 43.6667L136.43 32.8236H138.644L140.25 46.3637H138.035L136.78 35.7224L137.149 35.7591L134.197 46.3637H132.056L129.066 35.7591L129.453 35.7407L128.254 46.3637H126.058Z" fill="#FF2A00"/>
<path d="M146.436 46.4738C146.104 46.4738 145.747 46.4616 145.366 46.4371C144.997 46.4249 144.615 46.4004 144.222 46.3637C143.84 46.3148 143.477 46.272 143.133 46.2353C142.788 46.1864 142.481 46.1313 142.21 46.0702V44.2905C142.555 44.315 142.954 44.3394 143.41 44.3639C143.877 44.3883 144.363 44.4067 144.868 44.4189C145.372 44.4312 145.858 44.4373 146.326 44.4373C146.818 44.4373 147.255 44.3945 147.636 44.3088C148.017 44.211 148.313 44.0459 148.522 43.8135C148.731 43.5811 148.836 43.2508 148.836 42.8227V42.1806C148.836 41.7036 148.7 41.3366 148.43 41.0798C148.159 40.8229 147.759 40.6945 147.23 40.6945H145.957C144.714 40.6945 143.754 40.4254 143.078 39.8872C142.413 39.349 142.081 38.4255 142.081 37.1168V36.4196C142.081 35.1108 142.444 34.169 143.17 33.5941C143.908 33.007 144.96 32.7135 146.326 32.7135C146.793 32.7135 147.273 32.7379 147.765 32.7869C148.27 32.8236 148.749 32.8725 149.205 32.9336C149.66 32.9948 150.048 33.0621 150.367 33.1355V34.9151C149.826 34.8784 149.205 34.8417 148.503 34.805C147.814 34.7683 147.175 34.75 146.584 34.75C146.117 34.75 145.704 34.7989 145.348 34.8968C144.991 34.9946 144.72 35.172 144.536 35.4288C144.351 35.6735 144.259 36.0404 144.259 36.5297V36.97C144.259 37.5449 144.412 37.9485 144.72 38.1809C145.04 38.4133 145.495 38.5295 146.086 38.5295H147.507C148.307 38.5295 148.965 38.6763 149.482 38.9698C149.998 39.2634 150.38 39.667 150.626 40.1807C150.884 40.6822 151.013 41.2571 151.013 41.9054V42.7677C151.013 43.7707 150.817 44.5412 150.423 45.0794C150.029 45.6176 149.488 45.9845 148.799 46.1803C148.11 46.376 147.322 46.4738 146.436 46.4738Z" fill="#FF2A00"/>
<path fill-rule="evenodd" clip-rule="evenodd" d="M13.5245 6.78318C18.2192 3.44909 23.9668 1.4876 30.1772 1.4876C36.3327 1.4876 42.0332 3.4145 46.7047 6.6947L47.568 5.47963C42.6523 2.02792 36.6519 0 30.1772 0C23.3616 0 17.0717 2.24713 12.0193 6.03645L11.4212 6.48501L14.1362 10.0527C8.25676 14.7314 4.48917 21.9284 4.48917 30C4.48917 42.0032 12.8187 52.0707 24.0444 54.8047L23.3792 57.7069C10.8204 54.6725 1.49639 43.4179 1.49639 30C1.49639 22.32 4.54982 15.3504 9.51724 10.2232L8.43945 9.19122C3.21428 14.5845 0 21.9199 0 30C0 44.3886 10.1887 56.4098 23.7845 59.3254L24.5074 59.4804L25.8378 53.676L25.0962 53.5184C14.175 51.1981 5.98556 41.549 5.98556 30C5.98556 22.4141 9.51783 15.6485 15.0393 11.2396L20.1586 17.9669C16.6818 20.831 14.4651 25.1582 14.4651 30C14.4651 33.0582 15.3499 35.9129 16.879 38.3227L14.3196 40.7711C12.7224 38.4517 11.627 35.7649 11.1882 32.8646C11.0468 31.9306 10.9735 30.974 10.9735 30C10.9735 25.0678 12.854 20.574 15.9423 17.1857L14.8334 16.1868C11.5054 19.838 9.47714 24.6844 9.47714 30C9.47714 31.0484 9.55606 32.0789 9.70843 33.0858C10.2291 36.527 11.6068 39.6889 13.6175 42.3495L14.1254 43.0215L18.8226 38.5278L18.4622 38.0078C16.8849 35.7318 15.9615 32.9742 15.9615 30C15.9615 25.3775 18.1931 21.2735 21.6468 18.6938C23.4853 17.3207 25.6684 16.381 28.0439 16.0257L27.8213 14.5547C25.4507 14.9092 23.2537 15.7901 21.3548 17.0732L13.5245 6.78318ZM19.7497 8.29288L21.4985 11.3122C24.1388 10.0984 27.0794 9.42149 30.1772 9.42149C38.8656 9.42149 46.3021 14.7427 49.3723 22.2829L47.9853 22.8411C45.1359 15.8433 38.2353 10.9091 30.1772 10.9091C27.067 10.9091 24.1315 11.6436 21.5346 12.9469L20.9024 13.2642L17.6665 7.67745L18.3602 7.31951C21.8986 5.49396 25.9179 4.46281 30.1772 4.46281C42.5149 4.46281 52.8195 13.1088 55.2979 24.6379L55.4479 25.3355L50.5926 26.5801C50.7799 27.6928 50.8773 28.8353 50.8773 30C50.8773 39.7986 43.9891 47.9964 34.7641 50.0714L35.2888 53.5119C45.8133 51.2617 53.7943 42.2032 54.3392 31.2031L54.3731 30.5177L58.8556 30.3782C58.8572 30.2523 58.858 30.1263 58.858 30C58.858 22.1955 55.7048 15.1246 50.5941 9.97528L51.6593 8.93046C57.0351 14.3469 60.3544 21.7888 60.3544 30C60.3544 30.3773 60.3474 30.7531 60.3335 31.1271C60.0537 38.6553 56.9831 45.4754 52.1217 50.5933L51.0337 49.572C55.4834 44.8875 58.3527 38.7065 58.7975 31.8683L55.7906 31.9619C54.9001 43.6107 46.1501 53.0737 34.8002 55.1246L34.0421 55.2616L33.0704 48.8894L33.7788 48.7559C42.6631 47.0804 49.3809 39.3193 49.3809 30C49.3809 28.6914 49.2486 27.4144 48.9968 26.181L48.8555 25.4891L53.6742 24.2539C51.0833 13.7462 41.5452 5.95041 30.1772 5.95041C26.4421 5.95041 22.9064 6.79144 19.7497 8.29288ZM44.3929 30C44.3929 22.5919 38.6588 16.5145 31.3627 15.9162L31.4857 14.4336C39.5514 15.0951 45.8893 21.8114 45.8893 30C45.8893 38.6266 38.8548 45.6198 30.1772 45.6198C26.7854 45.6198 23.6431 44.5506 21.0749 42.7332L19.2127 45.6754C22.2604 47.7863 25.9518 49.0409 29.937 49.0894L30.7315 49.0991L30.3126 54.845L29.9939 58.5118C30.055 58.5122 30.1161 58.5124 30.1772 58.5124C36.2264 58.5124 41.8361 56.6515 46.4616 53.4741L47.3123 54.698C42.4448 58.0416 36.5399 60 30.1772 60C29.8351 60 29.4942 59.9943 29.1547 59.9831L28.3663 59.957L28.8209 54.7272L29.1252 50.5524C24.8713 50.3406 20.9544 48.8517 17.7567 46.4639L17.206 46.0527L20.6862 40.554L21.3402 41.0706C23.7667 42.9875 26.8364 44.1322 30.1772 44.1322C38.0283 44.1322 44.3929 37.805 44.3929 30ZM30.1772 20.7235C25.0237 20.7235 20.846 24.8767 20.846 30C20.846 35.1233 25.0237 39.2765 30.1772 39.2765C33.5542 39.2765 36.5129 37.4936 38.1519 34.8196L39.4298 35.5936C37.5305 38.6923 34.0976 40.7641 30.1772 40.7641C24.1973 40.7641 19.3496 35.9448 19.3496 30C19.3496 24.0552 24.1973 19.2359 30.1772 19.2359C36.1572 19.2359 41.0049 24.0552 41.0049 30C41.0049 30.359 40.9872 30.7141 40.9526 31.0645L39.4633 30.919C39.4932 30.6169 39.5085 30.3103 39.5085 30C39.5085 24.8767 35.3307 20.7235 30.1772 20.7235Z" fill="white"/>
</svg>
