<?xml version="1.0" encoding="UTF-8"?>
<svg id="a" data-name="Layer 1" xmlns="http://www.w3.org/2000/svg" viewBox="0 0 352.27 135.44">
  <defs>
    <style>
      .b {
        fill: #ff2a00;
      }

      .c {
        fill: #fff;
      }

      .d {
        fill-rule: evenodd;
      }

      .d, .e {
        fill: #0a1016;
      }

      .f {
        fill: none;
        stroke: #0a1016;
        stroke-linecap: round;
        stroke-width: 3px;
      }
    </style>
  </defs>
  <path class="d" d="M49.5,103.81c-4.72-.56-9.68-1.23-14.9-2.04L46.86,6.38c51.45,7.99,77.49,2.88,100.6-1.67C158.62,2.52,169.09.46,181.42.07c19.47-.61,42.64,2.53,63.27,7.07l-1.61,14.69,10.76-12.54c12.5,3.12,23.6,6.66,31.72,10.04,3.34,1.39,5.15,6.09,4.55,10.15l-11.28,87.74c-19.99-10-71.83-22.94-109.68-21.76-12.32.38-22.8,2.44-33.96,4.64-17.76,3.49-37.26,7.32-68.69,5.28-1.01-5.42-2.24-11.73-3.09-16.03l-1.68,15.68c-2.68-.22-5.45-.48-8.31-.78l-.86-6.99-3.07,6.54Z"/>
  <path class="e" d="M352.27,37.77c-19.19,2.79-43.17,3.92-80.61-1.9l-11.5,89.45c-.2,3.65,2.21,6.42,7.04,7.08,33.03,4.51,54.99,3.35,72.81.76l-30.36-47.57,42.62-47.82Z"/>
  <path class="f" d="M46.95,7.89L1.95,54.6l33.05,45.71"/>
  <g>
    <g>
      <path class="c" d="M72.38,53.51c-.6-.07-1.32-.17-2.17-.31-.85-.14-1.75-.31-2.69-.51-.95-.2-1.84-.4-2.69-.6-.84-.19-1.53-.39-2.06-.6.11-.8.17-1.2.28-1.99.69.16,1.57.35,2.62.56,1.05.21,2.19.41,3.39.59,1.21.19,2.39.35,3.56.49,1.34.16,2.57.16,3.7-.01,1.13-.17,2.05-.62,2.79-1.34.74-.73,1.2-1.85,1.41-3.35.13-.99.2-1.48.33-2.45.22-1.62,0-2.88-.63-3.81-.64-.93-1.83-1.48-3.61-1.7-1.42-.17-2.14-.26-3.6-.45-2.47-.32-4.41-1.13-5.77-2.37-1.36-1.25-1.89-3.18-1.58-5.62.08-.66.13-.99.21-1.63.32-2.56,1.37-4.06,3.14-4.76,1.77-.7,4.11-.84,6.89-.5.86.1,1.84.25,2.92.44,1.09.19,2.13.38,3.13.57,1,.2,1.79.36,2.38.51-.07.58-.11.88-.19,1.48-1.11-.18-2.4-.39-3.89-.64-1.48-.25-2.94-.46-4.37-.63-1.37-.17-2.59-.19-3.65-.06-1.06.13-1.92.49-2.56,1.11-.65.62-1.06,1.57-1.23,2.92-.08.58-.11.88-.19,1.48-.23,1.72.13,3.03,1.07,3.83.94.8,2.3,1.33,4.05,1.56,1.53.2,2.28.29,3.76.47,1.64.19,2.91.63,3.85,1.33.94.7,1.57,1.6,1.91,2.7.34,1.1.41,2.35.23,3.73-.14,1.06-.21,1.59-.35,2.67-.27,2.08-.9,3.67-1.89,4.73-.99,1.06-2.22,1.74-3.7,2.03-1.48.29-3.08.34-4.82.13Z"/>
      <path class="c" d="M85.93,54.54c4.27-9.74,8.42-19.55,12.9-29.19,1.04.05,1.55.07,2.58.1,2.53,9.87,4.88,19.78,7.38,29.65-.93.02-1.39.03-2.32.05-1.03-4-1.51-6.02-2.45-9.94-4.53-.04-6.79-.12-11.47-.39-1.63,3.87-2.47,5.87-4.21,9.88-.96-.06-1.45-.09-2.42-.16ZM93.36,42.62c4.16.24,6.17.31,10.2.37-1.54-6.83-2.23-10.16-3.61-15.82-2.46,5.5-3.77,8.73-6.59,15.45Z"/>
      <path class="c" d="M113.98,54.91c.18-9.81.39-19.63.79-29.44.67-.02,1-.03,1.68-.05,4.93,8.02,9.89,16.06,15.27,23.78-.43-10.71-.65-16.11-.63-24.67.89-.07,1.34-.11,2.26-.19.02,9.62.44,19.27.93,28.88-.8.09-1.19.14-1.98.22-5.61-7.87-10.75-16.19-15.66-24.51-.26,9.13-.31,14.83-.44,25.86-.89.05-1.34.07-2.23.11Z"/>
      <path class="c" d="M146.75,51.79c-1.41.21-2.62.17-3.65-.1-1.03-.28-1.9-.93-2.6-1.95-.71-1.02-1.27-2.54-1.67-4.55-.41-2.01-.68-4.63-.81-7.76-.12-2.94-.04-5.29.23-7.12.27-1.83.72-3.23,1.35-4.27.63-1.03,1.45-1.79,2.46-2.29,1.01-.51,2.22-.86,3.65-1.08.54-.08,1.17-.14,1.91-.19.74-.05,1.51-.08,2.31-.1.8-.02,1.54,0,2.23.07.02.57.03.87.06,1.46-.34-.04-.86-.03-1.53.01-.68.04-1.43.1-2.26.18-.83.07-1.64.17-2.45.3-1.2.18-2.21.48-3.03.91-.82.43-1.48,1.07-1.97,1.96-.49.89-.84,2.1-1.03,3.69-.2,1.59-.25,3.65-.14,6.25.11,2.73.34,5,.66,6.73.32,1.73.76,3.04,1.32,3.9.55.86,1.26,1.41,2.11,1.64.85.23,1.87.26,3.07.08,1.58-.24,2.88-.5,3.9-.78,1.02-.28,1.86-.53,2.49-.74.04.73.06,1.09.09,1.82-.65.27-1.37.53-2.15.79-.78.26-1.56.49-2.34.69-.78.2-1.51.36-2.21.46Z"/>
      <path class="c" d="M163.17,49.15c-.53-11.71-.81-17.81-1.27-27.15-3.13.5-4.67.76-7.68,1.26-.03-.71-.04-1.06-.07-1.75,6.77-1.13,10.26-1.77,17.69-2.72.04.69.05,1.04.09,1.76-3.3.42-4.92.65-8.08,1.14.47,9.35.73,15.47,1.25,27.21-.77.1-1.15.14-1.92.24Z"/>
      <path class="c" d="M185.11,47.58c-1.43.03-2.71-.09-3.86-.37-1.15-.28-2.13-.77-2.94-1.48-.81-.71-1.44-1.69-1.89-2.94-.45-1.25-.7-2.84-.76-4.74-.26-8.64-.39-12.86-.73-19.63.83-.09,1.25-.14,2.09-.23.33,6.78.45,11.01.67,19.68.05,1.99.37,3.53.97,4.61.59,1.08,1.43,1.81,2.53,2.21,1.09.4,2.4.57,3.93.53,1.56-.04,2.88-.28,3.99-.75,1.1-.46,1.96-1.26,2.58-2.39.61-1.13.95-2.73.98-4.77.14-8.87.2-13.2.08-20.06.92-.01,1.39-.01,2.33-.01.07,6.87-.02,11.21-.24,20.11-.05,1.95-.31,3.6-.77,4.91-.46,1.31-1.12,2.35-1.96,3.11-.84.76-1.85,1.3-3.03,1.64-1.18.34-2.49.52-3.94.56Z"/>
      <path class="c" d="M198.66,47.63c3.85-10.09,7.65-20.15,13.02-29.56,1.38.13,2.07.19,3.45.34,3.67,10.36,5.62,21.21,7.72,31.96-1.03-.16-1.55-.24-2.57-.39-.82-4.33-1.24-6.5-2.15-10.7-5.33-.72-7.97-1.02-13.16-1.45-1.63,3.91-2.42,5.93-3.93,9.98-.96-.07-1.44-.11-2.39-.17ZM205.76,35.61c4.71.4,7.09.66,11.9,1.3-1.56-7.3-2.41-10.84-4.44-16.85-3.05,5.5-4.58,8.76-7.46,15.55Z"/>
      <path class="c" d="M227.95,51.2c1.51-10.1,3.01-20.19,4.51-30.29,5.17.94,7.75,1.47,12.83,2.64.98.23,1.95.54,2.89.95.95.41,1.77.96,2.48,1.66.7.7,1.2,1.61,1.48,2.76.28,1.14.27,2.57-.04,4.33-.29,1.63-.74,2.95-1.34,3.91-.6.96-1.27,1.68-2.02,2.13-.75.45-1.52.72-2.33.81-.8.09-1.55.1-2.23.03,1.78,5.95,2.62,9.08,4.3,15.29-1-.24-1.5-.36-2.51-.59-1.65-6.09-2.49-9.15-4.25-14.99-.5-.11-1.14-.26-1.92-.44-.79-.18-1.62-.37-2.49-.56-.87-.19-1.73-.39-2.58-.58-.84-.19-1.57-.35-2.19-.46-.83,5.36-1.26,8.19-2.13,13.84-.99-.18-1.49-.27-2.48-.44ZM232.84,35.94c3.87.73,5.81,1.13,9.67,1.99.79.18,1.55.26,2.28.26.73,0,1.41-.18,2.05-.53.64-.35,1.19-.93,1.65-1.75.46-.81.82-1.92,1.06-3.29.23-1.32.26-2.39.07-3.24-.19-.85-.52-1.54-1.01-2.07-.49-.53-1.08-.96-1.76-1.27-.68-.31-1.41-.56-2.19-.73-3.92-.9-5.89-1.31-9.86-2.07-.72,4.64-1.12,7.26-1.96,12.71Z"/>
      <path class="c" d="M262.33,59.1c.79-4.35,1.18-6.54,1.95-10.75-2.56-9.36-3.86-13.95-6.76-21.7,1.06.29,1.59.44,2.65.74,2.48,6.83,3.61,10.78,5.83,18.92,4.79-6,7.14-8.82,11.62-13.47.99.34,1.48.51,2.46.85-5.11,5.26-7.82,8.51-13.33,15.41-.76,4.21-1.16,6.38-1.94,10.73-.99-.3-1.48-.44-2.47-.73Z"/>
    </g>
    <g>
      <path class="b" d="M67.8,89.24c-.78-.09-1.6-.2-2.48-.33-.87-.14-1.76-.3-2.66-.5-.9-.2-1.75-.39-2.55-.58-.8-.19-1.51-.39-2.14-.6.14-1.29.22-1.97.38-3.37.81.17,1.76.35,2.84.54,1.08.2,2.22.38,3.4.55,1.18.17,2.32.31,3.42.43,1.15.12,2.19.14,3.11.04.92-.1,1.65-.36,2.2-.78.55-.43.88-1.08,1-1.98.07-.54.11-.81.18-1.36.14-1.02-.07-1.85-.62-2.47-.55-.62-1.44-.99-2.68-1.12-1.19-.12-1.79-.18-2.99-.31-2.92-.32-5.12-1.21-6.56-2.65-1.44-1.44-1.97-3.68-1.54-6.81.09-.67.14-1,.23-1.68.44-3.16,1.68-5.38,3.66-6.57,1.98-1.19,4.6-1.58,7.78-1.21,1.09.13,2.19.3,3.32.52,1.12.22,2.19.46,3.19.7,1,.25,1.85.49,2.54.72-.23,1.75-.35,2.62-.57,4.35-1.21-.19-2.59-.39-4.17-.64-1.58-.24-3.05-.44-4.43-.59-1.09-.12-2.07-.11-2.95.03-.88.14-1.58.49-2.11,1.04-.53.56-.88,1.43-1.05,2.61-.06.42-.09.64-.15,1.06-.2,1.38.04,2.38.71,3.01.67.64,1.7,1.03,3.09,1.19,1.34.15,2,.22,3.32.35,1.86.18,3.33.66,4.43,1.43,1.1.77,1.86,1.76,2.29,2.94.43,1.18.56,2.48.38,3.88-.09.74-.14,1.11-.23,1.83-.27,2.1-.91,3.59-1.96,4.57-1.05.97-2.4,1.55-4.06,1.77-1.66.22-3.52.21-5.59-.01Z"/>
      <path class="b" d="M91.46,90.52c.32-3.11.49-4.83.84-8.45-3.03-8-4.38-12.71-6.92-22.07,2.07.14,3.09.2,5.12.29,1.84,6.94,2.82,10.42,4.94,16.73,3.25-6.28,4.81-9.72,7.76-16.48,1.94-.01,2.91-.03,4.86-.09-3.92,9.03-6.06,13.68-10.54,21.64-.3,3.61-.44,5.33-.72,8.45-2.14.01-3.21,0-5.35-.02Z"/>
      <path class="b" d="M120.07,89.55c-.78.08-1.62.14-2.5.18-.88.04-1.78.06-2.69.05-.91,0-1.77-.03-2.57-.05-.81-.03-1.52-.08-2.15-.16.07-1.33.1-2.02.16-3.44.8,0,1.73,0,2.8-.03,1.07-.03,2.19-.07,3.37-.15,1.18-.07,2.31-.16,3.4-.27,1.15-.11,2.17-.3,3.07-.58.89-.28,1.59-.68,2.08-1.2.49-.52.73-1.22.73-2.1,0-.53,0-.8,0-1.33,0-1-.33-1.75-.96-2.23-.63-.48-1.55-.66-2.76-.54-1.17.12-1.75.17-2.91.27-2.84.25-5-.18-6.47-1.28-1.48-1.1-2.14-3.14-2.04-6.18.02-.65.03-.97.05-1.63.1-3.06.96-5.36,2.56-6.82,1.59-1.46,3.82-2.27,6.75-2.49,1-.08,2.04-.11,3.12-.1,1.08,0,2.12.03,3.12.08,1,.05,1.86.11,2.58.21.05,1.66.08,2.49.13,4.14-1.22.05-2.6.11-4.14.18-1.54.06-2.95.15-4.24.25-1.02.08-1.92.27-2.7.55-.78.29-1.37.74-1.78,1.35-.41.62-.62,1.5-.64,2.64,0,.41,0,.61-.02,1.02-.02,1.33.31,2.23,1,2.71.69.48,1.7.66,3.03.55,1.28-.11,1.92-.17,3.2-.3,1.81-.18,3.31,0,4.5.51,1.19.52,2.1,1.29,2.71,2.32.61,1.03.93,2.23.96,3.59.01.72.02,1.08.03,1.79.03,2.06-.42,3.63-1.35,4.79-.93,1.16-2.22,2.01-3.85,2.56-1.63.55-3.5.94-5.59,1.14Z"/>
      <path class="b" d="M141.5,86.48c-.08-8.39-.35-13.69-.88-24.2-2.63.37-3.91.55-7.48.99-.08-1.87-.12-2.82-.2-4.71,9.1-1.08,10.99-1.46,17.96-2.48.1,1.88.15,2.82.24,4.68-2.68.39-4.02.58-6.66.96.53,10.5.81,15.8.96,24.14-1.58.24-2.37.36-3.94.61Z"/>
      <path class="b" d="M160.52,84.03c-.51.06-1.1.07-1.74.05-.64-.02-1.26-.17-1.86-.44-.6-.27-1.09-.74-1.49-1.4-.39-.67-.62-1.63-.67-2.94-.26-6.18-.44-9.7-.8-16.81-.07-1.31.03-2.43.28-3.36.25-.93.62-1.69,1.1-2.27.48-.58,1.02-1.02,1.62-1.32.6-.3,1.21-.49,1.81-.57,1.51-.21,2.89-.36,4.11-.45,1.23-.1,2.35-.17,3.38-.23,1.03-.06,1.99-.09,2.88-.09.07,1.78.1,2.67.17,4.44-3.69.35-5.52.57-9.14,1.04-.74.09-1.3.41-1.7.94-.4.53-.57,1.3-.52,2.31.11,2.19.16,3.27.26,5.4,3.96-.38,5.96-.56,9.98-.81.07,1.59.1,2.37.17,3.91-3.99.45-5.99.73-9.94,1.32.09,1.98.14,2.96.23,4.83.03.74.17,1.28.42,1.64.24.36.55.59.91.69.36.1.74.13,1.13.09,3.63-.4,5.45-.57,9.08-.83.07,1.47.11,2.19.18,3.56-.95.15-1.98.3-3.11.45-1.12.15-2.26.3-3.42.44-1.16.15-2.28.3-3.33.43Z"/>
      <path class="b" d="M173.6,82.78c.57-9.87,1.11-19.75,1.7-29.62,1.62-.12,2.44-.17,4.07-.26,2.65,10.28,3.89,15.69,6.4,24.54,2.08-8.73,3.27-14.13,5.96-24.68,1.68.05,2.53.09,4.23.2.57,10.25,1.09,20.5,1.96,30.73-1.48-.19-2.2-.3-3.68-.46-.91-7.92-1.23-13.08-1.98-23.39.27.05.41.07.68.12-2.4,10.11-3.44,15.1-5.21,22.75-1.47-.07-2.2-.1-3.68-.12-2.38-7.77-3.52-12.76-5.94-22.64.28-.03.42-.05.7-.08-.64,10.05-.92,15.03-1.37,22.75-1.53.04-2.3.07-3.84.15Z"/>
      <path class="b" d="M209.08,85.39c-.64-.09-1.32-.2-2.02-.33-.71-.13-1.42-.28-2.13-.46-.71-.18-1.37-.34-1.99-.5-.62-.16-1.16-.33-1.64-.51.06-1.34.1-2.04.17-3.48.62.13,1.36.26,2.21.42.86.16,1.76.31,2.73.46.96.15,1.91.28,2.83.4.97.13,1.85.15,2.64.07.79-.08,1.43-.33,1.91-.75.49-.42.79-1.08.9-2,.07-.55.1-.83.17-1.38.13-1.04-.06-1.89-.55-2.54-.5-.65-1.3-1.05-2.39-1.2-1.05-.14-1.57-.2-2.61-.33-2.52-.31-4.34-1.13-5.56-2.51-1.22-1.38-1.74-3.58-1.52-6.72.05-.67.07-1.01.11-1.68.22-3.17,1.12-5.44,2.78-6.73,1.66-1.28,3.98-1.78,6.97-1.41,1.02.12,2.08.31,3.17.56,1.09.25,2.14.53,3.14.82,1,.3,1.85.59,2.54.88-.24,1.75-.36,2.63-.59,4.37-1.19-.27-2.55-.56-4.07-.85-1.52-.3-2.91-.52-4.18-.68-1.01-.12-1.91-.11-2.69.04-.78.15-1.4.52-1.84,1.09-.44.57-.72,1.45-.82,2.64-.04.43-.06.64-.09,1.06-.12,1.38.11,2.38.7,3,.59.62,1.49,1,2.71,1.15,1.18.14,1.77.22,2.97.38,1.69.22,3.06.76,4.08,1.6,1.02.84,1.73,1.89,2.12,3.13.39,1.24.48,2.57.29,3.99-.1.75-.15,1.13-.26,1.86-.29,2.14-.92,3.64-1.89,4.58-.96.95-2.16,1.48-3.6,1.65-1.43.17-3.01.13-4.72-.1Z"/>
    </g>
  </g>
</svg>